<?xml version="1.0" encoding="UTF-8"?>
<svg width="145.31" height="231.56" version="1.1" viewBox="0 0 145.3125 231.5625" xmlns="http://www.w3.org/2000/svg">
 <path d="m48.01 229.67c-23.618-3.4831-38.624-9.4636-45.061-17.959-1.2806-1.6901-1.5225-63.039-0.51025-129.37 0.39262-25.728 0.23891-33.059-0.73711-35.156-0.80025-1.7197-1.1387-5.4887-0.96401-10.736l0.26916-8.0857 4.8871-1.5116c2.6879-0.83136 7.8402-2.1291 11.45-2.8839 5.9256-1.2392 38.538-9.1866 43.125-10.509 1.2385-0.35714 1.5568-0.22651 0.9375 0.3848-0.51562 0.50901-5.3672 2.0097-10.781 3.335-26.213 6.4161-37.512 9.0771-38.625 9.0959-0.67005 0.01132-3.0788 0.86467-5.3527 1.8963-5.6493 2.563-3.0748 5.4331 2.6671 2.9732 1.8383-0.78752 5.5553-2.0073 8.26-2.7105 2.7047-0.70327 7.1344-1.8544 9.8438-2.5581s6.712-1.9093 8.8947-2.6791c2.1827-0.76982 3.7398-1.0296 3.4603-0.57728-0.27955 0.45232 0.25491 0.83716 1.1877 0.85519 0.93277 0.01804-0.62436 1.116-3.4603 2.44-2.8359 1.324-5.4144 2.8218-5.7298 3.3285-0.31546 0.50672-0.94827 0.92325-1.4062 0.92563-1.6137 0.008391-13.489 5.775-13.489 6.5502 0 0.43192 1.2382 0.7853 2.7515 0.7853s3.8446 0.4156 5.1806 0.92355c2.1607 0.8215 3.579 0.14818 12.836-6.0938 9.3249-6.2876 12.044-7.7918 12.044-6.6621 0 0.19538-3.6914 2.7988-8.2031 5.7854s-8.4141 5.7052-8.6719 6.0413c-0.25781 0.33609-1.3125 0.97422-2.3438 1.4181-2.1584 0.92897 6.4209 1.8343 26.719 2.8194 25.167 1.2214 35.016 1.0168 46.406-0.96411 1.5469-0.26902 5.3272-0.71106 8.4007-0.98232 7.2804-0.64254 7.2962-0.73257 0.71319-4.0557-3.0839-1.5567-5.8688-2.5687-6.1886-2.2489-0.31985 0.31985-0.58155 0.12377-0.58155-0.43574s-1.5512-1.976-3.4472-3.1478-2.9568-2.294-2.3574-2.4938 2.2561 0.4508 3.6816 1.4458c4.6105 3.2181 16.92 9.5881 18.529 9.5881 3.464 0 0.36433-2.4875-7.1016-5.6992-15.124-6.5059-24.445-11.126-23.976-11.885 0.25953-0.41993-2.263-1.7443-5.6057-2.9431s-5.8813-2.3759-5.6414-2.6158c0.42486-0.42486 11.569 3.4535 40.652 14.148 15.63 5.7476 15.865 5.7964 19.307 4.0111 4.8618-2.5224 2.1366-3.5938-30.289-11.909-8.5078-2.1816-19.266-5.0047-23.906-6.2734-12.848-3.5127-15.805-3.4098-16.399 0.5704-0.84763 5.675-9.4839 8.6962-11.09 3.8794-0.2812-0.84361 0.07579-1.0786 1.063-0.69976 0.98771 0.37902 1.3271 0.15519 1.0115-0.66713-0.26119-0.68064 0.18217-1.4897 0.98524-1.7978 1.1145-0.42767 1.4601-2.0019 1.4601-6.6505 0-6.8849 0.78788-7.7652 7.8473-8.768 10.209-1.4503 11.804-0.49776 11.826 7.065 0.0079 2.707 0.33076 4.9344 0.71748 4.9497 0.38672 0.01533 5.3438 1.275 11.016 2.7992 5.6719 1.5242 18.492 4.9153 28.489 7.5357 22.308 5.8472 29.91 14.527 21.265 24.281-1.3687 1.5442-2.2881 47.67-2.5046 125.66l-0.1002 36.081-2.7182 3.432c-11.8 14.899-52.329 22.379-90.64 16.729zm31.901-36.777 0.22317-36.797 0.25651 36.855 0.25651 36.855 3.0359-0.29296 3.0359-0.29296 0.53758-6.5625 0.53757-6.5625 0.16555 6.8591 0.16555 6.8592 2.5781-0.29665 2.5781-0.29664 0.46875-32.033c0.25781-17.618 0.67969-32.243 0.9375-32.501 0.25781-0.25772 0.33262 13.683 0.16625 30.98-0.32745 34.042-0.41257 33.497 5.057 32.358 3.6625-0.76262 3.6837-0.79271 3.8103-5.4108 1.2339-45.009 1.3513-163.55 0.162-163.55-0.76068 0-1.3915 0.52734-1.4018 1.1719s-0.34081 22.688-0.73449 48.984c-0.39368 26.297-0.84692 50.133-1.0072 52.969-0.16029 2.8359-0.32195 18.551-0.35926 34.922-0.0467 20.486-0.38077 29.766-1.0716 29.766-0.67534 0-0.83832-2.6838-0.49818-8.2031 0.27805-4.5117 0.75938-38.578 1.0696-75.703 0.31023-37.125 0.72659-70.573 0.92524-74.329 0.41761-7.8957-0.0158-9.5775-2.4683-9.5775-1.6551 0-1.7749 0.86871-1.7771 12.891-0.0047 24.882-1.1991 90.708-1.6543 91.172-0.25301 0.25781-0.19078-22.813 0.13829-51.267 0.62164-53.753 0.65025-53.319-3.446-52.291l-2.2382 0.56174-0.21264 31.562c-0.11695 17.359-0.3948 31.744-0.61745 31.967-0.22264 0.22265-0.40481-13.946-0.40481-31.485v-31.89l-18.516-0.67917c-10.184-0.37354-21.469-1.01-25.078-1.4144s-6.6118-0.68986-6.6721-0.63436c-1.3145 1.2099-0.93741 168.36 0.3807 168.75 1.9613 0.57084 11.817 2.3142 15.666 2.7713 1.5469 0.18368 7.9805 0.39716 14.297 0.47442l11.484 0.14047zm-36.346-21.328c0-30.68 0.11827-43.23 0.26282-27.891 0.14455 15.34 0.14455 40.441 0 55.781s-0.26282 2.7891-0.26282-27.891zm44.05 2.8125c0-20.883 0.12344-29.426 0.27432-18.984 0.15087 10.441 0.15087 27.527 0 37.969-0.15087 10.441-0.27432 1.8984-0.27432-18.984zm-7.2045-70.486c-0.26062-40.795-0.20426-42.952 1.1221-42.952 0.98429 0 1.7308 7.4968 0.80356 8.0699-0.38243 0.23636-0.72094 16.947-0.75224 37.135s-0.2509 36.899-0.48799 37.136c-0.23709 0.2371-0.54555-17.488-0.68546-39.389zm27.752 114.31c1.3587-22.446 1.5519-160.08 0.22471-160.08-1.0892 0-1.3367 4.4888-1.46 26.484-0.0817 14.566-0.31796 34.289-0.52514 43.828-1.4159 65.191-1.4555 98.438-0.11722 98.438 1.0432 0 1.4728-1.9837 1.8776-8.6719zm-71.995-76.885 0.6796-84.131h-4.9724l-0.0012 10.078c-6.93e-4 5.543-0.28043 43.262-0.62165 83.821l-0.62039 73.743 2.2623 0.35694c1.2442 0.19632 2.3369 0.33578 2.4282 0.30993 0.09126-0.0259 0.47176-37.906 0.84554-84.178zm76.364 68.447c0.0173-8.8945 0.26841-46.969 0.55808-84.609 0.35221-45.767 0.21515-68.127-0.41377-67.5-0.58965 0.5878-1.1552 19.122-1.5163 49.688-0.31672 26.812-0.80256 64.465-1.0796 83.672-0.45047 31.224-0.34901 34.922 0.95819 34.922 1.2666 0 1.4662-2.1612 1.4934-16.172zm4.2588-66.797c0.38231-43.828 0.73357-80.912 0.78058-82.408 0.0471-1.4965-0.3364-2.8663-0.85203-3.0439-0.59764-0.20583-0.967 5.1987-1.0189 14.908-0.0938 17.565-1.4072 119.33-1.7981 139.32-0.21733 11.115-0.0492 13.238 0.96505 12.188 0.98166-1.0168 1.3678-17.27 1.9234-80.96zm-86.864 49.453c-0.01619-17.402 0.26889-54.938 0.63352-83.412 0.68116-53.194 0.52292-56.109-2.8573-52.641-0.65887 0.67598-1.7078 165.59-1.0599 166.63 2.9392 4.7557 3.3133 1.2711 3.2837-30.58zm90.568-51.562c0.38021-46.37 0.31689-81.797-0.14621-81.796-0.4493 2.85e-4 -0.84753 6.2229-0.88494 13.828-0.12801 26.014-1.5128 135.69-1.7956 142.21-0.29407 6.78 0.19545 9.6255 1.4312 8.3194 0.39867-0.42137 1.0267-37.575 1.3956-82.563zm-95.182 29.531c0.79644-88.007 0.63172-114.4-0.71685-114.85-0.93557-0.31209-1.1788 4.6141-1.1535 23.359 0.01768 13.065-0.15567 27.551-0.38521 32.192-0.30995 6.2661-0.82797 102.29-0.59302 109.92 0.01984 0.64454 0.5634 1.1718 1.2079 1.1718 0.9177-8e-5 1.2735-11.235 1.6406-51.797zm99.073 6.2501c0.0916-24.707 0.41018-53.57 0.70802-64.141s0.5562-19.852 0.57412-20.625c0.42728-18.433-0.17384-36.675-1.1973-36.334-1.1677 0.38951-1.3189 4.188-0.64593 16.227 0.14563 2.6054 0.028 5.1367-0.26128 5.625-0.28933 0.48831-0.54509 9.1144-0.56834 19.169-0.0233 10.055-0.34923 42.49-0.72439 72.079-0.58282 45.966-0.49065 53.734 0.63323 53.359 1.1013-0.36709 1.3424-7.7495 1.4818-45.36zm-103.24-39.063c0.48255-58.393 0.39138-83.203-0.30573-83.203-0.68765 0-1.0418 18.824-1.1509 61.172-0.08665 33.645-0.25649 70.664-0.37742 82.266-0.19627 18.829 0.0046 24.141 0.87886 23.244 0.14716-0.15114 0.57698-37.716 0.95514-83.478zm-3.4017 16.627c-0.0034-35.571 0.05707-66.15 0.13435-67.955 0.19212-4.4864 0.24249-23.934 0.07467-28.828-0.27424-7.9971-1.5465-3.7167-1.6719 5.625-0.07094 5.2852-0.25706 14.461-0.4136 20.391-0.15654 5.9297-0.23773 31.031-0.18043 55.781s-0.07508 52.172-0.29418 60.938c-0.2191 8.7656-0.16198 16.948 0.12694 18.182 1.7771 7.5947 2.2297-5.4576 2.2241-64.134zm110.76 17.592c0.0571-47.423 0.31476-67.049 1.323-100.78 0.44664-14.942-0.21031-20.563-1.8078-15.469-0.47143 1.5035-2.6569 155.92-1.4815 164.06 0.81094 5.6172 1.9202-9.6062 1.9663-47.812zm-115.06-36.562c0.31703-51.268 0.17706-82.734-0.36804-82.734-0.48764 0-0.88023 4.0735-0.88094 9.1406-7.08e-4 5.0273-0.28036 41.669-0.62144 81.426-0.5473 63.794-0.37301 76.747 1.0128 75.271 0.19028-0.20271 0.5762-37.599 0.85759-83.103zm121.03-0.9375c0.55646-72.623 0.47177-80.859-0.83132-80.859-1.232 0-1.4645 1.8742-1.5411 12.422-0.0496 6.832-0.2142 17.906-0.36574 24.609-1.6382 72.464-1.5143 128.39 0.28036 126.56 1.7873-1.823 1.8554-4.115 2.4578-82.734zm-125.55 63.261c0.15697-20.653 0.54277-130.59 0.4918-140.14-0.019946-3.7383-0.41487-6.7969-0.87762-6.7969-0.47311 0-0.85811 10.156-0.87965 23.203-0.021065 12.762-0.33266 48.952-0.69243 80.422-0.59629 52.159-0.37887 62.604 1.2688 60.957 0.30756-0.30756 0.61764-8.2495 0.68907-17.649zm130.79-9.9278c0.0121-11.673 0.27866-47.25 0.59231-79.059l0.57029-57.835-1.9986 0.52264c-1.9203 0.50218-1.9989 1.0413-2.0066 13.773-5e-3 7.2875-0.24381 43.625-0.53198 80.75l-0.52396 67.5 1.9382-2.2132c1.8355-2.096 1.9394-3.3379 1.9603-23.438zm-133.62-96.614c0-32.399-0.25915-41.726-1.1677-42.03-0.73071-0.2443-1.1185 0.42774-1.0363 1.7957 0.0723 1.2024-0.19997 37.013-0.60504 79.579-0.62198 65.359-0.53373 77.75 0.56752 79.688 1.4692 2.5852 2.2415-38.43 2.2415-119.03zm81.419-34.92c1.3697-5.1155 0.70956-12.034-1.1482-12.034-2.551 0-3.6866 1.8203-4.1053 6.5809l-0.36942 4.2004-0.16379-4.8587c-0.19997-5.9319-0.40351-6.0237-12.936-5.8322-5.0925 0.077807-13.9-0.33222-19.572-0.91116-5.6719-0.57894-10.996-1.053-11.831-1.0534-1.2212-6.31e-4 -1.5437 1.1315-1.649 5.7888-0.18394 8.1371-1.0517 8.1302-1.0517-0.0083 0-6.0938-0.17442-6.7188-1.875-6.7188-1.6827 0-1.875 0.625-1.875 6.0938 0 3.4375-0.40865 6.0938-0.9375 6.0938-0.52796 0-0.9375-2.6378-0.9375-6.0384 0-3.3211-0.44994-6.3165-0.99987-6.6564-1.5883-0.98162-2.1923 0.28543-1.9658 4.1239 0.11571 1.961-0.19762 4.5863-0.69629 5.8338-0.72391 1.8111-0.91865 0.99274-0.9661-4.0598-0.0467-4.9736-0.36043-6.3281-1.4657-6.3281-2.6032 0-1.9539 12.028 0.70312 13.026 10.861 4.0809 62.885 6.328 63.841 2.7575zm8.112-5.5807v-6.4532h-6.5624v6.4844c0 6.8205 0.49261 7.5824 4.4177 6.832 1.9872-0.37989 2.1448-0.88392 2.1448-6.8632zm5.625-0.42466c0-6.823-0.0813-7.0849-2.1094-6.7969-3.5059 0.49792-3.7715 13.893-0.27545 13.893 2.3447 0 2.3848-0.11931 2.3848-7.0965zm4.6875-0.40355c0-4.9778-0.3147-6.5625-1.3033-6.5625-0.97904 0-1.3281 1.6326-1.4031 6.5625-0.0799 5.2464 0.18151 6.5625 1.3032 6.5625 1.1122 0 1.4032-1.3606 1.4032-6.5625zm2.3504 5.6357c-0.32215-0.52123 0.0329-0.69435 0.81137-0.39562 1.1307 0.43388 1.3705-0.50228 1.3098-5.1122-0.0841-6.3799-1.0845-8.9719-2.5822-6.6904-1.2609 1.9208-1.2259 13.125 0.041 13.125 0.54606 0 0.73508-0.41704 0.42006-0.92676zm5.7954-6.5737c0.12265-4.5449-0.16554-6.5615-0.9375-6.5602-0.73748 0.0012-1.1758 2.2216-1.2955 6.5625-0.1257 4.5577 0.16052 6.5605 0.9375 6.5602 0.74282-2.97e-4 1.1779-2.2043 1.2955-6.5625zm3.9504-0.98334c0.14539-4.9793-0.1121-6.5162-1.0918-6.5162-0.95699 0-1.3182 1.7722-1.4246 6.9899-0.1109 5.4371 0.13162 6.8846 1.0918 6.5162 0.82955-0.31833 1.2967-2.6105 1.4246-6.9899zm3.724-0.36376c0-3.7628-0.41474-6.157-1.1133-6.4267-0.81401-0.31432-1.0303 1.4314-0.80451 6.494 0.37435 8.3945 1.9178 8.3403 1.9178-0.06734zm4.0072-4.0431c-0.18084-2.1914-0.70818-3.9844-1.1719-3.9844-1.0138 0-1.1433 12.508-0.13997 13.525 0.94914 0.96136 1.7174-4.6256 1.3118-9.5403zm-105.92 2.8145c-0.44393-9.0583-2.0335-9.756-2.0335-0.89259 0 5.149 0.33601 7.2193 1.1719 7.2207 0.85256 0.0014 1.0873-1.7229 0.86165-6.3281zm111.21-1.2258c0.044-5.0389-0.24543-6.5105-1.2803-6.5105-1.0384 0-1.337 1.564-1.337 7.0018 0 5.5324 0.26867 6.8987 1.2803 6.5105 0.90381-0.34682 1.297-2.4057 1.337-7.0018zm-114.29 0.59436c0.091125-3.3124-0.26939-6.2889-0.80153-6.6178-0.62965-0.38914-0.96715 1.7117-0.96715 6.0201 0 8.2695 1.5433 8.791 1.7687 0.59773zm119.33-1.6593c-0.45063-9.2399-2.9699-9.1371-2.9699 0.12118 0 5.6157 0.22413 6.4877 1.6406 6.3831 1.4232-0.10512 1.5994-0.967 1.3293-6.5042zm-126.56-1.1518c-0.22251-5.0632-0.68314-7.1053-1.6898-7.4916-2.0981-0.80513-1.6158 12.279 0.49818 13.515 0.82365 0.48153 1.4975 0.88932 1.4975 0.9062s-0.13765-3.1016-0.30589-6.9299zm133.89-2.6044 6e-3 -6.2794-2.8125 0.98044c-2.7812 0.96954-2.8125 1.0571-2.8125 7.8764v6.8959l2.8066-1.597c2.6776-1.5237 2.8068-1.8855 2.8125-7.8764zm-130.63 2.0603c0.0773-3.0936-0.23911-5.6247-0.70312-5.6247-0.96671 0-1.1659 9.6778-0.21867 10.625 0.34375 0.34375 0.66016 0.62486 0.70312 0.62468 0.04297-1.75e-4 0.14137-2.5314 0.21867-5.625zm-7.5522-1.7743c-0.52739-10.572-3.3696-11.836-3.3696-1.4979 0 5.4969 0.9132 7.5743 3.4866 7.9315 0.11295 0.01568 0.060313-2.8794-0.11698-6.4336zm128.82-4.3041c0-0.12794-2.6367-1.1584-5.8594-2.29-3.2226-1.1316-6.7031-2.45-7.7344-2.9299-3.757-1.7484-20.28-7.4493-21.375-7.3749-1.2489 0.08487-0.51296 0.43776 16.218 7.7773 9.7779 4.2893 18.75 6.5945 18.75 4.8175zm-106.95-6.2869c15.361-7.2966 15.043-7.4933-2.7418-1.6962-7.9083 2.5777-15.045 4.7017-15.86 4.72-1.9849 0.04451 2.6548 2.7013 4.7956 2.7461 0.87421 0.01827 7.087-2.5782 13.806-5.7699zm38.633-12.947c0.50922 0 0.60905 0.52734 0.22182 1.1719-0.47838 0.79627-0.19564 0.75948 0.88217-0.11479 1.1857-0.96176 1.5862-2.7767 1.5862-7.1875 0-3.7582 0.40874-6.0371 1.1257-6.2761 0.70697-0.23566 0.77468-0.59218 0.18203-0.95845-2.8333-1.7511-5.5265 1.6707-5.5265 7.0216 0 2.9775-0.51244 5.8083-1.1719 6.4736-0.64453 0.65023-1.1719 1.5499-1.1719 1.9992 0 0.44933 0.66295 0.15402 1.4732-0.65625 0.81027-0.81027 1.8899-1.4732 2.3991-1.4732zm15.056-7.9688c-0.4365-3.739-0.48506-3.7777-2.3713-1.8915-1.7298 1.7298-0.94639 5.1727 1.1769 5.1727 1.2507 0 1.4981-0.67957 1.1943-3.2812zm-5.0814 0.51562c0.27682-4.1689-0.70018-5.7487-2.8539-4.6147-2.4606 1.2955-3.4585 2.6195-3.4782 4.6147-0.02021 2.0463 6.1963 2.0463 6.3321 0zm-52.276 27.375c0.0042-0.38672 1.7972-1.7012 3.9844-2.921 7.5519-4.2119 16.174-8.8749 18.977-10.264 1.5469-0.76636 3.3824-1.839 4.079-2.3836 1.2134-0.94872 3.8898-1.6932 3.8898-1.082 0 0.43606-6.1165 4.0002-14.062 8.1944-3.8672 2.0412-7.1728 4.0959-7.3457 4.566-0.17295 0.47008-0.65028 0.64713-1.0607 0.39346-0.41046-0.25368-2.2916 0.58744-4.1803 1.8692-3.6761 2.4946-4.2926 2.729-4.2805 1.6273z"/>
</svg>
