<?xml version='1.0' encoding='utf-8'?>
<svg xmlns="http://www.w3.org/2000/svg" version="1.1" width="600px" height="976px" viewBox="0 0 600 976"> <g id="layer1"> <g style="fill:rgb(0,0,0); fill-opacity:1.0; stroke-linejoin: miter"> </g> <g style="fill:rgb(0,0,0); fill-opacity:1.0; stroke-linejoin: miter"> </g> <g style="fill:rgb(0,0,0); fill-opacity:1.0; stroke-linejoin: miter"> </g> <g style="fill:rgb(0,0,0); fill-opacity:1.0; stroke-linejoin: miter"> <path d="M366.06375,464.41397C366.07977,464.41397,366.08957,464.4209,366.08957,464.43546C366.08957,464.47577,366.02618,464.52765,365.97433,464.52765C365.89557,464.52765,365.89175,464.50653,365.96088,464.4585C366.00128,464.42966,366.03958,464.41397,366.06375,464.41397 Z M365.00507,467.7934C365.02396,467.7934,365.07742,467.84845,365.1638,467.958C365.23102,468.0406,365.3213,468.14816,365.36356,468.19424C365.45383,468.29605,365.47302,468.3364,365.5518,468.59375C365.61255,468.79803,365.657,468.8643,365.74643,468.8643C365.75876,468.8643,365.7719,468.86304,365.7861,468.86072C365.80032,468.85852,365.81235,468.85724,365.82227,468.8571L365.82593,468.8571C365.87256,468.85782,365.86798,468.8869,365.8226,468.9683C365.80338,469.00287,365.78226,469.07968,365.7765,469.13733C365.77075,469.19495,365.74384,469.2948,365.71503,469.3582C365.68814,469.42157,365.65356,469.4984,365.6382,469.53107C365.5921,469.63477,365.37506,470.16104,365.27136,470.41458C365.21045,470.5635,365.1848,470.62082,365.17502,470.62082C365.1709,470.62082,365.16956,470.61078,365.16956,470.5932C365.16763,470.5279,365.2003,470.23788,365.24448,469.90942C365.2733,469.70584,365.26752,469.60788,365.22525,469.4043C365.2022,469.3044,365.17725,469.08545,365.16763,468.91644C365.15613,468.7474,365.1446,468.58798,365.14075,468.5611C365.13498,468.5342,365.12155,468.44778,365.11002,468.36905C365.08698,468.22305,365.0255,467.91766,365.00247,467.83316C364.99487,467.80664,364.99582,467.7934,365.00507,467.7934 Z M368.53842,468.1784C368.56885,468.1784,368.61932,468.21844,368.6718,468.29517C368.77658,468.4427,369.19104,469.1634,369.2392,469.28036C369.25934,469.32645,369.29135,469.39124,369.30887,469.42462C369.50244,469.7574,369.93332,470.69693,370.0657,471.06625C370.2745,471.66306,370.30246,472.19165,370.15823,472.85928C370.09216,473.16232,370.01062,473.47363,369.9164,473.78262L369.9164,473.78262C369.9055,473.7371,369.89374,473.68765,369.88293,473.64136C369.81573,473.35324,369.72546,473.01712,369.66974,472.85C369.6198,472.70404,369.5833,472.5331,369.5468,472.27765C369.51608,472.0683,369.4623,471.82053,369.39316,471.5574C369.3048,471.2232,369.20877,470.83136,369.1819,470.70267C369.13773,470.4818,369.0801,470.2417,369.04553,470.1284C368.99942,469.9882,368.90915,469.6386,368.8669,469.43503C368.7922,469.09177,368.69775,468.84238,368.53168,468.5542L368.52798,468.5542C368.5274,468.36588,368.52307,468.30515,368.51355,468.2593C368.5022,468.20477,368.5137,468.1784,368.53842,468.1784 Z M365.12833,463.1003Q365.0613,463.1185,364.99414,463.13632Q364.9732,463.14127,364.95035,463.14627L364.954,463.14627C364.94067,463.16916,364.9297,463.17743,364.91055,463.17743C364.90256,463.17743,364.89313,463.176,364.88147,463.17355C364.87067,463.1712,364.86136,463.1699,364.85294,463.1699C364.82697,463.1699,364.80963,463.18243,364.7835,463.21582C364.76044,463.24463,364.7374,463.2907,364.73355,463.3176C364.72012,463.37714,364.61255,463.45206,364.53958,463.45206C364.4589,463.45206,364.35135,463.48663,364.29947,463.52695C364.2621,463.55743,364.26166,463.5849,364.2852,463.5849C364.2943,463.5849,364.307,463.58078,364.32254,463.57114C364.34775,463.5556,364.37057,463.54837,364.3889,463.54837C364.42496,463.54837,364.44345,463.5765,364.42816,463.6249C364.4128,463.67487,364.32062,463.72095,364.17847,463.75168C364.0421,463.7805,363.89615,463.85733,363.84235,463.92838C363.74634,464.05322,363.5216,464.4105,363.48895,464.48923C363.46973,464.53723,363.43518,464.6237,363.4102,464.6813C363.33914,464.85416,363.32376,464.91754,363.32376,465.04047C363.32376,465.19604,363.36218,465.28055,363.49664,465.415C363.61218,465.53055,363.68317,465.5746,363.76913,465.5746C363.7932,465.5746,363.81845,465.57114,363.8462,465.56482C363.883,465.55585,363.9072,465.5511,363.9253,465.5511C363.94595,465.5511,363.95865,465.55728,363.97296,465.5706C363.99026,465.58594,364.0248,465.60516,364.04788,465.6109C364.0767,465.6205,364.117,465.67813,364.17273,465.78955C364.24646,465.937,364.27945,465.986,364.32904,465.986C364.34402,465.986,364.36053,465.9815,364.38016,465.97394C364.39917,465.9669,364.41428,465.96295,364.43066,465.96295C364.45895,465.96295,364.49094,465.97476,364.553,466.00275C364.62024,466.03348,364.66632,466.06613,364.66824,466.0834C364.66824,466.12375,364.5319,466.25626,364.48962,466.25626C364.47235,466.25626,364.44354,466.2851,364.42624,466.31772C364.40704,466.3523,364.36862,466.41183,364.3398,466.44833C364.26874,466.5386,364.15927,466.74414,364.11893,466.8613C364.0959,466.93234,364.08627,467.02454,364.08627,467.22623C364.08627,467.53162,364.09396,467.57004,364.27258,468.30182C364.3398,468.57648,364.4109,468.8665,364.42816,468.94525C364.44547,469.024,364.46466,469.1066,364.47043,469.12772C364.47812,469.14883,364.4877,469.43887,364.4954,469.77115C364.50308,470.10342,364.52036,470.45874,364.5319,470.55862C364.5684,470.82944,364.56262,471.69376,364.52612,471.81476C364.51077,471.86664,364.50308,471.93192,364.50885,471.96072C364.5242,472.04333,364.48004,472.10672,364.22266,472.3756C364.117,472.48508,364.11508,472.4947,364.03635,473.02673C363.9966,473.28577,363.98846,473.3594,363.9966,473.40756L363.99295,473.40756C363.9905,473.4114,363.98813,473.41513,363.98578,473.4187C363.92807,473.51007,363.88757,473.5952,363.89886,473.6114C363.92307,473.65134,363.87463,473.76193,363.42053,474.69507C363.35754,474.8246,363.26007,475.03006,363.20053,475.1509C363.14355,475.27124,363.02155,475.52414,362.93103,475.7123C362.838,475.90097,362.6961,476.21094,362.6107,476.398C362.5258,476.58765,362.42926,476.78497,362.39258,476.8376C362.35843,476.88968,362.2834,477.03757,362.22794,477.16544C361.97037,477.75873,361.9819,477.73782,361.85382,477.7962C361.82797,477.80838,361.80722,477.81464,361.78607,477.81464C361.75793,477.81464,361.7291,477.8036,361.68658,477.78073C361.6453,477.75833,361.61618,477.74762,361.5735,477.74762C361.536,477.74762,361.48807,477.75586,361.4122,477.77164C361.2575,477.80383,361.20435,477.82813,361.11252,477.90808C361.0403,477.96805,361.00165,478.0237,361.00342,478.05774C361.00732,478.10193,361.13757,478.19388,361.58514,478.46323L362.1634,478.81387L362.46277,478.70132C362.74695,478.592,362.7611,478.5838,362.75656,478.5239C362.75214,478.47717,362.7081,478.4308,362.60034,478.35794C362.298,478.1509,362.27646,478.12366,362.26837,477.9957C362.26154,477.89923,362.2904,477.8218,362.41455,477.5791C362.4991,477.41333,362.5732,477.2736,362.57925,477.2644C362.6355,477.17862,362.7077,476.99164,362.70032,476.95612C362.68924,476.90286,362.6957,476.883,363.09048,476.03366C363.24738,475.69412,363.46423,475.22305,363.57367,474.986C363.6851,474.74588,363.8385,474.415,363.91855,474.25284C363.99805,474.08817,364.07596,473.91583,364.09088,473.87305C364.10577,473.83026,364.14352,473.78275,364.17438,473.76575C364.23715,473.73682,364.28568,473.6394,364.27194,473.5735C364.26666,473.54813,364.31595,473.41617,364.38098,473.2836C364.4002,473.24573,364.42755,473.1901,364.46,473.123L364.46362,473.123C364.4682,473.1241,364.47263,473.12473,364.47702,473.12473C364.5081,473.12473,364.53757,473.09525,364.59335,473.01712C364.64328,472.9499,364.66632,472.8942,364.67593,472.82312C364.68362,472.76935,364.72012,472.6618,364.75662,472.58688C364.79117,472.51196,364.8219,472.43515,364.8219,472.41403C364.8219,472.3948,364.8296,472.3468,364.8392,472.30838C364.84882,472.26996,364.868,472.16626,364.87955,472.076C364.9026,471.91464,364.9967,471.64767,365.15994,471.29233C365.19644,471.2136,365.22525,471.1406,365.22525,471.12717C365.22525,471.11563,365.23294,471.09644,365.24255,471.08682C365.2502,471.0753,365.2733,471.02344,365.29248,470.9716C365.31168,470.9178,365.33282,470.86594,365.3405,470.85632C365.34625,470.84482,365.37698,470.77567,365.4058,470.70267C365.43652,470.62778,365.4711,470.54135,365.48456,470.51062C365.498,470.47797,365.55945,470.332,365.6209,470.18408C365.69876,469.9937,365.74203,469.89783,365.75735,469.8894L365.76102,469.8894C365.76834,469.89554,365.7611,469.9479,365.7419,470.04388C365.71118,470.19754,365.68814,470.26477,365.60748,470.43378C365.56522,470.5183,365.53256,470.59705,365.53256,470.60858C365.53256,470.6201,365.498,470.7334,365.45767,470.86017C365.36356,471.14636,365.3405,471.24817,365.24448,471.7975C365.2022,472.0395,365.15994,472.28726,365.14844,472.34488C365.13882,472.4025,365.12155,472.50623,365.11002,472.57535C365.09848,472.6445,365.062,472.85193,365.03128,473.03632C364.99863,473.2207,364.9506,473.49728,364.92563,473.65094C364.8872,473.87183,364.86417,473.96017,364.80463,474.0831C364.70667,474.29053,364.64905,474.43652,364.64905,474.48068C364.64905,474.4999,364.59335,474.65356,364.5242,474.82065C364.45697,474.98776,364.37054,475.23553,364.33212,475.3719C364.29373,475.50827,364.2361,475.69458,364.20728,475.78677C364.13815,475.99612,364.1055,476.12866,364.04404,476.45517C363.97488,476.82202,363.91727,477.06595,363.89038,477.10052C363.87885,477.1178,363.8193,477.15814,363.75592,477.1908C363.6234,477.2638,363.59265,477.3195,363.6541,477.3771C363.69446,477.4136,363.69446,477.41745,363.66373,477.525C363.633,477.63446,363.6253,477.7555,363.59842,478.52185C363.58307,478.96167,363.59842,479.03467,363.73096,479.17487C363.85547,479.30695,363.97443,479.3593,364.1606,479.3593C364.164,479.3593,364.1674,479.35928,364.1708,479.35925C364.44354,479.35733,364.505,479.28244,364.48962,478.96167C364.48386,478.80994,364.47043,478.7427,364.43008,478.64478C364.40128,478.57562,364.36478,478.47574,364.35135,478.42197C364.31677,478.29327,364.27643,477.83807,364.2899,477.73627C364.31293,477.5711,364.3552,477.39438,364.37823,477.37134C364.38977,477.3598,364.39935,477.30026,364.39935,477.24072C364.39935,477.13702,364.41473,477.0986,364.62793,476.68182C364.87762,476.19012,364.9525,476.04797,365.062,475.85974C365.19836,475.62543,365.22717,475.56396,365.38083,475.17792C365.46533,474.9666,365.54218,474.78607,365.54987,474.7784C365.55145,474.7768,365.55518,474.77603,365.56058,474.77603C365.581,474.77603,365.6257,474.78705,365.6728,474.8053C365.73547,474.82965,365.76657,474.8393,365.87085,474.8393C365.93912,474.8393,366.03873,474.83517,366.19907,474.82834C366.3367,474.82135,366.44894,474.818,366.52936,474.818C366.60382,474.818,366.651,474.82086,366.66577,474.82642C366.69266,474.83603,366.78677,474.8437,366.87704,474.8437C367.02112,474.8437,367.07104,474.83218,367.31305,474.7496C367.45663,474.70016,367.55118,474.67322,367.5824,474.67322C367.58878,474.67322,367.5925,474.67432,367.59348,474.6766C367.59732,474.68814,367.59155,474.7957,367.58005,474.9167C367.56274,475.12988,367.57428,475.32965,367.6242,475.6677C367.653,475.8559,367.7529,476.77783,367.77017,477.0141C367.7798,477.14853,367.77786,477.162,367.7337,477.21384C367.7068,477.24457,367.6799,477.29645,367.67413,477.32907C367.66647,477.3598,367.6396,477.4597,367.61267,477.54803C367.5512,477.74588,367.5589,477.91296,367.6319,478.0532C367.70297,478.18762,367.7529,478.48727,367.72217,478.5929C367.71063,478.6371,367.70105,478.69662,367.70105,478.72543C367.70297,478.75424,367.69528,478.78113,367.68375,478.78882C367.65686,478.8061,367.6607,478.9636,367.69336,479.0846C367.7241,479.20175,367.79706,479.2882,367.90848,479.3439C367.9488,479.3631,367.99683,479.38614,368.0141,479.39575C368.0366,479.40698,368.09128,479.41217,368.15292,479.41217C368.2388,479.41217,368.33817,479.4021,368.38287,479.38422C368.46356,479.34967,368.48853,479.3151,368.5596,479.13647C368.61145,479.00394,368.61145,479.00394,368.5788,478.9156C368.5596,478.86755,368.49045,478.67166,368.42514,478.4815C368.25995,478.00708,368.25037,477.88608,368.34833,477.51538C368.37903,477.40207,368.37903,477.39246,368.3464,477.3195C368.31183,477.24457,368.31183,477.23306,368.34448,477.01602C368.36368,476.8931,368.38672,476.7471,368.39633,476.69525C368.4674,476.2996,368.54037,475.151,368.51926,474.76303C368.51157,474.6113,368.50388,474.44803,368.50195,474.40002L368.50006,474.3136L368.6441,474.27902C368.94373,474.20795,368.9322,474.2118,368.9322,474.1484C368.9322,474.06967,368.96292,474.06198,369.3202,474.0466C369.4145,474.04276,369.47968,474.03952,369.52686,474.03952C369.64395,474.03952,369.65012,474.0594,369.71585,474.1388C369.73016,474.15695,369.76443,474.16748,369.79526,474.16904L369.79156,474.16904C369.77072,474.22995,369.74945,474.29065,369.72772,474.35095C369.63022,474.61993,369.54688,474.88068,369.5402,474.93762C369.53787,474.9591,369.53394,474.97354,369.52896,474.98157L369.53265,474.98157L369.5237,475.4124L369.5274,475.4124C369.5494,475.49402,369.5723,475.5328,369.61777,475.5776C369.71014,475.666,369.8652,475.71146,370.06882,475.71146C370.18558,475.71146,370.31827,475.6965,370.4643,475.66614C370.74323,475.60812,370.9625,475.51755,371.29126,475.3301L371.59424,475.1586L371.7921,474.86346C371.96335,474.6056,371.99286,474.5439,372.019,474.37708C372.0527,474.18436,372.07425,474.11844,372.10757,474.11844C372.11127,474.11844,372.1151,474.11923,372.11914,474.1208C372.12363,474.12234,372.1355,474.12314,372.15262,474.12314C372.1901,474.12314,372.25272,474.11932,372.3182,474.11115L372.4918,474.09354L372.50845,474.2118C372.52246,474.31732,372.5343,474.33603,372.61743,474.3796C372.66635,474.4067,372.70377,474.42035,372.7365,474.42035C372.77582,474.42035,372.80847,474.40073,372.8464,474.36108C372.89883,474.30783,372.89197,474.21136,372.832,474.1392C372.77972,474.07864,372.8389,474.04517,372.99738,474.04395C373.1401,474.04333,373.23428,473.99994,373.32684,473.88544C373.3577,473.84756,373.39548,473.82153,373.42078,473.82153C373.42313,473.82153,373.42535,473.82175,373.42746,473.8222C373.4558,473.82782,373.48178,473.83063,373.50552,473.83063C373.55807,473.83063,373.59976,473.81696,373.63245,473.79013C373.68646,473.7445,373.67694,473.69885,373.56894,473.4594C373.53018,473.37488,373.52377,473.33124,373.54004,473.26965C373.5662,473.16632,373.54562,473.0674,373.47842,472.98615C373.3933,472.88214,373.38437,472.77554,373.45276,472.6846C373.49597,472.62534,373.5088,472.5724,373.50037,472.46832C373.4952,472.39267,373.4779,472.3222,373.45953,472.31015C373.44315,472.295,373.39078,472.15778,373.34286,472.0037C373.20596,471.57446,373.09537,471.46255,372.72803,471.38815C372.64774,471.3722,372.54724,471.36456,372.43625,471.36456C372.16962,471.36456,371.8425,471.40863,371.58987,471.48734C371.35626,471.55975,371.30817,471.58298,371.1952,471.68848C371.0191,471.8468,370.97693,471.97464,370.9968,472.3118C371.00223,472.42706,370.99304,472.48456,370.95276,472.53262C370.87582,472.63327,370.90796,472.85147,371.0097,472.9335C371.08224,472.98984,371.08743,473.00198,371.18872,473.4889L371.29208,473.98593L371.36392,474.0133C371.45056,474.04822,371.4573,474.06796,371.40878,474.16537C371.35825,474.26584,371.39203,474.42813,371.46585,474.45245C371.48608,474.4582,371.5052,474.461,371.52298,474.461C371.61407,474.461,371.67062,474.38785,371.66455,474.26297C371.66046,474.19238,371.6739,474.1552,371.7058,474.14328C371.71185,474.1407,371.7174,474.1393,371.72247,474.13904L371.7262,474.13904C371.7877,474.14255,371.76804,474.32455,371.6802,474.51636C371.5823,474.73248,371.37823,474.9469,371.07346,475.1479C370.892,475.26764,370.86716,475.27545,370.46606,475.36945C370.2111,475.4277,370.10562,475.4503,370.03305,475.4503C369.99493,475.4503,369.9659,475.44406,369.92908,475.43347C369.67404,475.3648,369.67883,475.26065,369.99918,474.30777C370.2202,473.6533,370.313,473.298,370.3815,472.82605C370.41092,472.62415,370.44174,472.40344,370.44632,472.33636C370.45087,472.26926,370.46274,472.16098,370.46985,472.09335C370.50098,471.84875,370.32996,471.07742,370.14362,470.62674C370.11774,470.56598,370.07266,470.451,370.04004,470.37048C369.73758,469.6159,369.34793,468.82388,369.11887,468.49847C369.10294,468.4727,369.02997,468.36353,368.96005,468.25638C368.83762,468.06747,368.64557,467.85687,368.4644,467.70953L368.46808,467.70953C368.50345,467.71194,368.54327,467.7131,368.58942,467.7131C368.61353,467.7131,368.63934,467.7128,368.66714,467.71216L368.90146,467.7064L368.93988,467.63916C368.99365,467.54697,368.99176,467.3722,368.93604,467.25504C368.91492,467.207,368.88226,467.12442,368.865,467.07257C368.8477,467.0188,368.8016,466.93234,368.75934,466.8805C368.719,466.82672,368.62106,466.68842,368.54037,466.57318C368.45972,466.45602,368.3214,466.2697,368.23114,466.16025C368.14087,466.04883,367.97955,465.8414,367.87006,465.70117C367.6511,465.4131,367.4091,465.148,367.29193,465.06735C367.24774,465.03662,367.16324,464.9963,367.1037,464.97708C367.0473,464.96005,367.01273,464.95187,366.95688,464.95187C366.9119,464.95187,366.8531,464.95718,366.75797,464.96747C366.62738,464.98093,366.51212,465.00012,366.4987,465.00974C366.48715,465.02127,366.41992,465.0443,366.34888,465.06543C366.2778,465.08658,366.19138,465.1192,366.1568,465.14035C366.08295,465.18295,365.97443,465.21085,365.90036,465.21085C365.87427,465.21085,365.85245,465.2074,365.83795,465.1999C365.65356,465.10193,365.61707,465.01166,365.7381,464.95596C365.7784,464.93674,365.813,464.906,365.81683,464.8868C365.82016,464.86905,365.82028,464.8609,365.8131,464.8609C365.8079,464.8609,365.79877,464.86526,365.78418,464.87335C365.76837,464.88126,365.74713,464.88647,365.72916,464.88647C365.72092,464.88647,365.71338,464.88538,365.70737,464.88297C365.67856,464.87527,365.6747,464.85992,365.68622,464.79077C365.692,464.7447,365.70544,464.69666,365.71503,464.6813C365.72464,464.66592,365.73425,464.64096,365.7381,464.6256C365.74,464.61023,365.75345,464.5872,365.76883,464.5718C365.7799,464.56073,365.7887,464.55496,365.8009,464.55496C365.81625,464.55496,365.837,464.5641,365.87445,464.58334C365.91672,464.60446,365.98587,464.62753,366.0281,464.6352C366.04752,464.63843,366.0627,464.64032,366.07544,464.64032C366.108,464.64032,366.12448,464.62802,366.15488,464.59488C366.19907,464.54877,366.2048,464.5238,366.2048,464.40857C366.2048,464.2895,366.19907,464.27026,366.15488,464.22992C366.12607,464.20303,366.09726,464.18192,366.08957,464.18192C366.07614,464.18192,365.94553,464.0129,365.8226,463.8381L365.7784,463.77472L365.82068,463.69983L365.86102,463.6249L365.8226,463.47125C365.77264,463.27344,365.76114,463.2542,365.65356,463.19275C365.60135,463.16415,365.5749,463.15247,365.54395,463.15247C365.5271,463.15247,365.50894,463.1559,365.48456,463.16202C365.4,463.18268,365.34814,463.19327,365.30945,463.19327C365.27255,463.19327,365.2476,463.18362,365.2176,463.16394C365.18915,463.14813,365.15417,463.12195,365.132,463.1003 Z"/> </g> </g> </svg>