<?xml version="1.0" encoding="UTF-8"?>
<svg viewBox="0 0 266.07996 375.51001" xmlns="http://www.w3.org/2000/svg" xmlns:xlink="http://www.w3.org/1999/xlink">
 <defs>
  <linearGradient id="i">
   <stop stop-color="#fff" stop-opacity=".33613" offset="0"/>
   <stop stop-color="#fff" stop-opacity="0" offset="1"/>
  </linearGradient>
  <linearGradient id="f">
   <stop stop-color="#6e7d84" offset="0"/>
   <stop stop-color="#565e61" stop-opacity=".65254" offset="1"/>
  </linearGradient>
  <linearGradient id="e">
   <stop stop-color="#6e7d84" offset="0"/>
   <stop stop-color="#83aaaf" offset="1"/>
  </linearGradient>
  <linearGradient id="c">
   <stop offset="0"/>
   <stop stop-opacity=".33613" offset="1"/>
  </linearGradient>
  <linearGradient id="b">
   <stop stop-color="#adaa9a" offset="0"/>
   <stop stop-color="#adaa9a" stop-opacity="0" offset="1"/>
  </linearGradient>
  <linearGradient id="g">
   <stop stop-color="#919692" offset="0"/>
   <stop stop-color="#919692" stop-opacity="0" offset="1"/>
  </linearGradient>
  <linearGradient id="a">
   <stop stop-color="#6e7d84" offset="0"/>
   <stop stop-color="#8f9ca2" stop-opacity="0" offset="1"/>
  </linearGradient>
  <linearGradient id="h">
   <stop stop-color="#fff" stop-opacity=".10084" offset="0"/>
   <stop stop-color="#fff" stop-opacity="0" offset="1"/>
  </linearGradient>
  <linearGradient id="d">
   <stop offset="0"/>
   <stop stop-opacity="0" offset="1"/>
  </linearGradient>
  <linearGradient id="y" x1="288.38" x2="304.07" y1="299.35" y2="282.26" gradientUnits="userSpaceOnUse">
   <stop stop-color="#878e85" offset="0"/>
   <stop stop-color="#878e85" stop-opacity="0" offset="1"/>
  </linearGradient>
  <linearGradient id="w" x1="255.34" x2="287.96" gradientUnits="userSpaceOnUse">
   <stop stop-color="#adaa9a" offset="0"/>
   <stop stop-color="#c1bdab" stop-opacity=".34746" offset="1"/>
  </linearGradient>
  <linearGradient id="ad" x1="369.5" x2="384.03" y1="274.68" y2="332.34" gradientUnits="userSpaceOnUse" xlink:href="#g"/>
  <linearGradient id="ac" x1="328.39" x2="343.18" y1="248.43" y2="296.05" gradientUnits="userSpaceOnUse" xlink:href="#b"/>
  <linearGradient id="ab" x1="431.58" x2="478.57" gradientUnits="userSpaceOnUse" xlink:href="#b"/>
  <linearGradient id="aa" x1="408.79" x2="447.64" gradientUnits="userSpaceOnUse" xlink:href="#b"/>
  <linearGradient id="z" x1="247.5" x2="264.29" gradientUnits="userSpaceOnUse" xlink:href="#a"/>
  <linearGradient id="x" x1="266.24" x2="298.79" gradientUnits="userSpaceOnUse" xlink:href="#g"/>
  <linearGradient id="aq" x1="279.91" x2="289.34" y1="356.54" y2="338.17" gradientUnits="userSpaceOnUse" xlink:href="#f"/>
  <linearGradient id="ap" x1="276.78" x2="248.15" y1="357.46" y2="370.99" gradientUnits="userSpaceOnUse" xlink:href="#a"/>
  <linearGradient id="ao" x1="293.13" x2="289.2" y1="299.01" y2="305.31" gradientUnits="userSpaceOnUse" xlink:href="#a"/>
  <linearGradient id="an" x1="275.77" x2="292.05" y1="302.62" y2="294.04" gradientUnits="userSpaceOnUse" xlink:href="#f"/>
  <linearGradient id="am" x1="263.3" x2="257.69" y1="317.22" y2="323.95" gradientUnits="userSpaceOnUse" xlink:href="#e"/>
  <linearGradient id="al" x1="245.26" x2="260.67" y1="335.14" y2="320.67" gradientUnits="userSpaceOnUse" xlink:href="#a"/>
  <linearGradient id="ak" x1="237.16" x2="248.14" y1="334.54" y2="327.49" gradientUnits="userSpaceOnUse" xlink:href="#a"/>
  <linearGradient id="aj" x1="291.75" x2="238.08" y1="320.73" y2="317.15" gradientUnits="userSpaceOnUse" xlink:href="#e"/>
  <linearGradient id="ai" x1="297.58" x2="241.45" y1="323.02" y2="352.79" gradientUnits="userSpaceOnUse" xlink:href="#i"/>
  <linearGradient id="ah" x1="296.5" x2="306.15" gradientUnits="userSpaceOnUse" xlink:href="#a"/>
  <linearGradient id="ag" x1="300.35" x2="296.2" y1="279.68" y2="292.78" gradientUnits="userSpaceOnUse" xlink:href="#a"/>
  <linearGradient id="af" x1="376.28" x2="400.7" y1="214.57" y2="244.04" gradientUnits="userSpaceOnUse" xlink:href="#b"/>
  <linearGradient id="ae" x1="367.5" x2="410.57" y1="345.49" y2="347.57" gradientUnits="userSpaceOnUse" xlink:href="#f"/>
  <radialGradient id="v" cx="372.62" cy="370.96" r="81.696" gradientTransform="matrix(1 0 0 .49083 0 188.88)" gradientUnits="userSpaceOnUse" xlink:href="#d"/>
  <radialGradient id="u" cx="439.8" cy="420.76" r="21.087" gradientTransform="matrix(1 0 0 3.6527 0 -1116.2)" gradientUnits="userSpaceOnUse" xlink:href="#d"/>
  <radialGradient id="t" cx="319.24" cy="484.4" r="25.787" gradientTransform="matrix(1 0 0 3.3493 0 -1138)" gradientUnits="userSpaceOnUse" xlink:href="#d"/>
  <radialGradient id="s" cx="379.31" cy="453.25" r="31.562" gradientTransform="matrix(1 0 0 1.213 0 -96.557)" gradientUnits="userSpaceOnUse" xlink:href="#d"/>
  <radialGradient id="r" cx="370.92" cy="458.32" r="85.833" gradientTransform="matrix(1 0 0 1.4298 0 -196.98)" gradientUnits="userSpaceOnUse" xlink:href="#h"/>
  <radialGradient id="q" cx="292.6" cy="360.23" r="27.914" gradientTransform="matrix(1 0 0 .66288 0 121.44)" gradientUnits="userSpaceOnUse" xlink:href="#h"/>
  <radialGradient id="p" cx="247.53" cy="453.73" r="13.86" gradientTransform="matrix(1 0 0 7.7557 0 -3065.3)" gradientUnits="userSpaceOnUse" xlink:href="#c"/>
  <radialGradient id="o" cx="385.91" cy="434.48" r="133.33" gradientTransform="matrix(2.0612 -.015942 .015315 1.9802 -415.68 -403.55)" gradientUnits="userSpaceOnUse" xlink:href="#e"/>
  <radialGradient id="n" cx="245.6" cy="465.29" r="24.516" gradientTransform="matrix(.65489 6.7407 -.8031 .078024 458.43 -1226.5)" gradientUnits="userSpaceOnUse" xlink:href="#b"/>
  <radialGradient id="m" cx="355.74" cy="274.33" r="49.643" gradientTransform="matrix(1.1866 -.28771 .043741 .1804 -78.369 327.19)" gradientUnits="userSpaceOnUse" xlink:href="#c"/>
  <radialGradient id="l" cx="365" cy="274.33" r="49.643" gradientTransform="matrix(1 0 0 .50719 -21.786 114.65)" gradientUnits="userSpaceOnUse" xlink:href="#c"/>
  <radialGradient id="k" cx="365" cy="274.33" r="49.643" gradientTransform="matrix(1 0 0 .50719 25 156.8)" gradientUnits="userSpaceOnUse" xlink:href="#c"/>
  <radialGradient id="j" cx="432.75" cy="286.54" r="14.178" gradientTransform="matrix(1 0 0 1.0909 0 -26.047)" gradientUnits="userSpaceOnUse" xlink:href="#i"/>
 </defs>
 <g transform="translate(-217.8 -217.44)">
  <path d="m416.12 217.44c-0.47998-0.0037-0.97946-3.2e-4 -1.4688 0.03125-7.8287 0.50508-18.438 1.25-18.438 1.25l-95.688 25.281c-1e-5 0-10.884 1.2354-16.188 15.125s-11.594 29.812-11.594 29.812l-0.5 2.7812-2.5312 0.25-28.531 23.75-17.938 20.438s-6.3277 8.5918-4.8125 21.219 25.25 176.03 25.25 176.03 0.51348 2.0008 2.2812 5.0312 26.003 40.411 25.75 39.906c1e-5 2e-5 11.113 23.502 46.469 10.875s136.62-51.281 136.62-51.281 26.021-12.369 27.031-37.875 2.0312-227.53 2.0312-227.53-0.52348-13.648-10.625-20.719-43.938-30.562-43.938-30.562-5.9878-3.757-13.188-3.8125zm-34.688 19.219-9.2812 11.969-53.062 15.531c-1e-5 1e-5 -5.5268 1.9464-8.5625 4.625s-8.75 7.5-8.75 7.5-2.3304 1.4375-3.9375 1.4375-2.4955 0.01339-3.0312-1.5938-0.53125-6.8125-0.53125-6.8125 2.5089-4.6339 2.6875-6.0625 0.875-4.625 0.875-4.625 5.3661-0.91072 7.6875-1.625 75.906-20.522 75.906-20.344z" fill="url(#o)" fill-rule="evenodd"/>
  <path d="m454.32 330.86-29.042 56.063s-3.5355 6.566-5.8084 7.8287-40.154 13.132-40.154 13.132-1.7678 1.7678-13.637-1.0102-74.751-21.466-74.751-21.466l73.236 23.739s8.3338 2.5254 11.617 1.7678 43.689-14.395 43.689-14.395 2.5254-1.7678 4.2932-4.7982 30.557-61.114 30.557-60.862z" fill="url(#v)" fill-rule="evenodd"/>
  <path d="m456.84 343.74-31.315 70.458s-5.0508 10.102-5.0508 17.93 1.0102 47.477 1.0102 47.477 0.25254 4.0406 8.0812 7.3236 31.315 10.859 31.315 10.859l-34.85-9.3439s-7.3236-2.7779-7.3236-9.0914v-52.78s1.0102-3.0305 4.0406-9.5964 34.093-72.984 34.093-73.236z" fill="url(#u)" fill-rule="evenodd"/>
  <path d="m293.45 398.04c1.0102 0 43.942 12.879 43.942 12.879s3.0305 0.50507 3.5355 5.0508 4.0406 59.852 4.0406 59.852 0.50508 6.566-1.5152 10.607-38.386 84.348-38.386 84.348l36.365-83.843s2.2728-5.8084 2.0203-10.859-4.0406-61.114-4.0406-61.114 0-2.0203-4.2932-2.7779-41.669-13.89-41.669-14.142z" fill="url(#t)" fill-rule="evenodd"/>
  <path d="m405.32 415.46s3.283 0 3.283 6.0609 1.7678 43.689 1.7678 43.689-2.5254 9.5964-10.607 12.374-34.598 12.627-34.598 12.627-12.627 4.0406-13.132-5.8084-3.7881-44.952-3.7881-44.952 5.5558-14.142 5.8084-7.5762 3.283 51.518 3.283 51.518 1.5152 6.3134 10.102 3.5355 33.082-11.617 33.082-11.617 7.0711-3.5355 7.0711-10.102-1.2627-45.457-1.2627-45.457l-1.0102-4.2932z" fill="url(#s)" fill-rule="evenodd"/>
  <path d="m443.96 505.11-38.891-12.879s-6.8185-3.0305-13.89-1.2627-42.426 14.395-42.426 14.395-4.7982 0-8.0812 8.0812-19.445 47.982-19.445 47.982-8.5863 13.637-12.122 16.92-9.0914 3.0305-6.566-1.7678 28.789-65.66 28.789-65.66l9.0914-19.445s4.0406-11.112 4.0406-14.9-4.5457-57.831-4.5457-57.831-1.2627-5.5558-7.8287-8.3338-31.062-9.849-31.062-9.849-12.879-4.7982-15.152-8.3338 9.3439-1.7678 15.657-0.50507 63.387 19.698 63.387 19.698 6.3134 1.2627 13.637-1.0102 38.133-11.869 38.133-11.869 5.3033-1.7678 8.5863-7.0711 28.789-53.538 28.789-53.538 6.3134-9.3439-2.5254 14.142-32.072 68.185-32.072 68.185-2.0203 6.566-3.7881 33.082-5.3033-2.7779-5.3033-2.7779l-0.25254-29.8s1.2627-10.354-11.617-7.8287-39.143 11.364-39.143 11.364-6.8185 0.25254-7.8287 9.5964-1.5152 19.698-1.7678 23.234 2.0203 28.032 2.5254 29.042 0.75761 7.5761 11.869 4.5457 38.638-13.385 38.638-13.385 8.3338-4.0406 16.415 11.364 14.9 9.3439 14.9 9.3439 9.0914-6.566 9.849 7.0711z" fill="url(#r)" fill-rule="evenodd"/>
  <path d="m319.97 342.73s1.5152 4.2932-0.50508 6.0609-47.982 29.547-50.76 29.8-2.7779 0.25254-3.7881-0.75761 1.5152 0 3.7881-1.0102 42.679-27.274 44.194-30.305 6.566-6.566 7.0711-3.7881z" fill="url(#q)" fill-rule="evenodd"/>
  <path d="m251.53 346.27s-21.971 8.3338-17.173 35.608 23.739 174.25 23.739 174.25 3.5355 6.566 3.283 4.7982-25.506-179.81-25.506-179.81-4.7902-24.481 16.668-33.335c0.522-0.2154-0.50508-1.7678-1.0102-1.5152z" fill="url(#p)" fill-rule="evenodd"/>
  <path d="m438.75 274.68-91.607 25.714s-2.5 1.0714-1.9643 1.9643 2.5 3.3929 2.5 3.3929l-9.2857 25s-1.9643 2.8571 3.75 0.89286 45.893-13.214 45.893-13.214 15.893-5.3571 27.857-17.321 23.214-26.607 22.857-26.429z" fill="url(#ad)" fill-rule="evenodd"/>
  <path d="m432.68 260.76-12.321-9.8214-5.1786-2.5-7.6786 8.5714-82.5 21.607-3.75-0.53571-3.75 2.5-0.53571 15.357s0.35714 3.2143 1.7857 3.9286 3.5714 1.4286 6.9643-1.25 7.5-7.1429 7.5-7.1429 2.3214-3.3928 6.9643-5 37.857-11.607 37.857-11.607l54.643-14.107z" fill="url(#ac)" fill-rule="evenodd"/>
  <path d="m287.14 337.9z" fill="none" stroke="#000"/>
  <path d="m267.86 570.22s2.8572 1.0714 2.1429-5.3571-20-161.07-20-161.07-1.7857-15-5-17.5-19.643-23.571-19.643-23.571-5.7143-8.9286-3.9286 7.5 22.857 162.5 22.857 162.5 1.4286 6.0714 4.6429 9.6429 19.643 27.857 18.929 27.857z" fill="url(#n)" fill-rule="evenodd"/>
  <path d="m478.57 258.08s-9.2857-5.7143-17.857-3.5714-10.714-0.71429-10.714-0.71429l-17.143-12.143s-4.2857-4.2857 2.8572-4.2857 13.929-1.7857 16.786 0.35714 21.429 15 21.429 15 4.2857 3.5714 4.6429 5.3572z" fill="url(#ab)" fill-rule="evenodd"/>
  <path d="m424.64 234.15s11.429-2.5 15.714-2.1429 6.7857 1.4286 6.7857 1.4286l-15-9.6429s-8.2143-5-14.286-4.6428-8.5714 1.0714-8.5714 1.0714 7.1429 4.6429 8.9286 6.7857 5.7143 7.5 6.4286 7.1429z" fill="url(#aa)" fill-rule="evenodd"/>
  <path d="m414.64 249.15-7.8572 7.5-81.786 21.429h-3.2143l-3.9286 1.4286v20l-2.5-14.643 1.7857-6.7857 4.6428-5.7143 92.857-23.214z" fill="url(#m)" fill-rule="evenodd" opacity=".15556"/>
  <path d="m392.86 228.61-7.8572 7.5-81.786 21.429-6.0424 0.74423-0.8028 5.1497-2.0838 4.8177-0.71384-3.9259 1.7857-6.7857 4.6428-5.7143 92.857-23.214z" fill="url(#l)" fill-rule="evenodd" opacity=".15556"/>
  <path d="m439.64 270.76-7.8572 7.5-81.786 21.429h-3.2143l92.857-28.929z" fill="url(#k)" fill-rule="evenodd" opacity=".15556"/>
  <path d="m446.79 271.29s0.71429 1.4286-1.0714 4.2857-14.286 20.357-17.5 22.143-9.6429 4.2857-9.6429 4.2857 9.2857-6.4286 12.5-11.429 12.143-17.143 12.143-17.143 1.4286-3.2143 3.5714-2.1429z" fill="url(#j)" fill-rule="evenodd"/>
  <path d="m261.79 330.4-14.107-13.929s-0.71428-4.4643 0.71429-5 15.893 15.179 15.893 15.179-1.9643 2.5-2.5 3.75z" fill="url(#z)" fill-rule="evenodd"/>
  <path d="m297.64 298.57s0.42724-2.7058 0.99688-3.7027 5.9813-4.5572 5.9813-4.5572l1.5665-1.2817s0.85447-2.5634-0.28483-3.8451-4.13-3.9875-4.13-3.9875-1.8514-0.56964-3.5603 0.42724-7.6903 5.4117-7.6903 5.4117-0.28482 0.28482-1.2817 1.9938-0.85448 2.421-0.85448 2.421l9.2568 7.1206z" fill="url(#y)" fill-rule="evenodd"/>
  <path d="m295.93 296.87s3.2755 3.8451-4.2724 9.684-17.659 13.102-17.659 13.102l-7.263 4.5572 0.85448 1.2817 17.374-12.247s14.526-10.254 13.244-13.244-2.1362-3.4179-2.2786-3.1331z" fill="url(#x)" fill-rule="evenodd"/>
  <path d="m287.96 308.97s-18.941 1.4241-21.647 1.9938-10.966 2.2786-10.966 2.2786l11.108 11.535 21.504-15.808z" fill="url(#w)" fill-rule="evenodd"/>
  <path d="m286.53 338.17-2.9907 6.4085-1.8514 0.99689 1.4241 2.1362-7.1206 6.551 3.1331 4.13s13.529-10.966 7.4054-20.223z" fill="url(#aq)" fill-rule="evenodd"/>
  <path d="m278.99 358.1-2.7058-4.5572-1.4241-0.14241-2.7058-3.2755-2.8482 0.99689s-3.2755 0.42723-4.2724-0.14241-1.4241-2.5634-1.4241-2.5634l1.8514-2.421-3.1331-3.8451s-2.8482 2.2786-7.1206 2.421-4.2724 0-4.2724 0l10.396 14.953s3.5603 2.9907 17.659-1.4241z" fill="url(#ap)" fill-rule="evenodd"/>
  <path d="m372.56 248.44 30.216-7.2935s1.3396-0.74423 0.44654-2.8281-8.4842-9.5262-8.4842-9.5262-1.1908-0.74423-3.1258 0.89308-6.1027 6.1027-6.1027 6.1027l-4.1677 1.0419-8.7819 11.61z" fill="url(#af)" fill-rule="evenodd"/>
  <path d="m345.17 302.62 1.6373 2.0838s1.3396 1.4885 0.14885 3.5723-7.8889 23.815-7.8889 23.815 6.5492-22.029 5.9538-25.006 0.14885-4.4654 0.14885-4.4654z" fill="url(#ae)" fill-rule="evenodd"/>
 </g>
 <g transform="translate(-217.8 -217.44)" fill-rule="evenodd">
  <path d="m293.13 302.52-2.3782-2.9985s-3.3087-1.3442-5.5835 0.31019-4.9631 4.3427-4.9631 4.3427l-3.5155 5.2733 10.96-0.51699 5.4801-6.4107z" fill="url(#ao)"/>
  <path d="m293.44 302.93s-1.2408-3.4121-2.3782-3.4121-3.5155-2.3782-6.9276 1.1374-5.3767 7.7548-5.3767 7.7548-17.474 2.9985-19.439 3.5155-3.9291 1.1374-3.9291 1.1374-5.0665-2.6883-6.9276-1.551 25.229-15.716 28.331-16.957 1.2408-0.62039 3.5155-1.3442 5.2733-1.034 5.2733-1.034 2.7917 0.20679 4.7563 1.6544 4.1359 2.585 3.7223 5.7903-0.51699 3.3087-0.62039 3.3087z" fill="url(#an)"/>
  <path d="m266.46 324.65s-10.857-11.684-11.477-11.787-4.9631-2.3782-5.9971-1.3442 14.269 14.166 14.269 14.166 0.72378-1.2408 3.2053-1.034z" fill="url(#am)"/>
  <path d="m261.8 330.02-14.682-13.855-8.4786 4.4461 15.199 16.13 7.9616-6.7209z" fill="url(#al)"/>
  <path d="m239.16 321.44s-4.1359 9.2024-0.51699 12.821 6.1005 4.4461 7.548 4.4461 6.1005-0.82718 6.9277-1.4476 0.72379-0.62039 0.72379-0.62039l-14.682-15.199z" fill="url(#ak)"/>
  <path d="m284.49 342.76c0-0.421 13.683-29.049 13.683-29.049s2.7365-5.9993 1.7892-8.841-2.3155-6.5255-2.3155-6.5255l-1.8945-1.4735s2.7365 4.5258-2.4208 8.9463-25.681 19.682-25.681 19.682-3.2628-1.5788-4.5258-0.31575-1.684 5.052-1.684 5.052l-7.4728 6.4203s-5.1239 2.1232-6.6308 2.105c-4.7082-0.05414-9.262-4.631-9.262-4.631l7.2623 10.736s9.8935 1.1578 13.998-1.0525 3.0523-1.7892 3.0523-1.7892l2.8418 3.9995s-1.7893 2.526-1.3683 3.5785 1.8945 1.9998 2.6313 1.8945 5.473-0.94726 5.5783-1.3683 2.526 3.4733 2.526 3.4733 1.5788 0.52625 2.2103 0 5.5783-5.052 5.5783-5.052 0.94726-0.6315 0.31576-1.5788-0.42101-1.684-0.42101-1.684l1.4735-0.421 0.73675-2.105z" fill="url(#aj)"/>
  <path d="m317.64 343.85s-4.5179-11.984-7.74-16.671c-3.2746-4.7631-11.312-13.992-11.312-13.992l-12.503 24.709s5.3585 4.4654 0.59539 11.61-10.419 9.2285-13.694 10.717-12.205-0.29769-12.205-0.29769l-7.74-14.587s-8.6331-2.0838-10.419-4.4654-5.3585-8.0377-5.3585-8.0377 1.1908-11.015 2.0838-11.015 0-0.59539 0-0.59539l6.8469-4.1677s0.89308-3.2746 2.3815-4.7631l2.6792-2.6792 11.908-8.6331 13.396-7.1446-7.4423-2.0838s-45.845 39.295-47.929 47.929-3.87 10.419-3.2746 12.503 26.197 29.174 26.197 29.174 8.3354 2.3815 12.801-0.59538 21.136-8.3354 24.113-8.9308 33.937-23.22 33.937-23.22 2.9769-2.6792 2.6792-4.7631z" fill="url(#ai)" opacity=".4"/>
  <path d="m297.69 298.6s0.29769-2.6792 1.4885-4.1677 5.6562-4.7631 5.6562-4.7631 1.7862-2.0838 1.1908-3.5723-1.4885 2.9769-2.9769 3.5723-5.3585 3.5723-5.3585 3.5723-1.1908 2.0838-1.1908 3.5723 1.1908 1.7862 1.1908 1.7862z" fill="url(#ah)"/>
  <path d="m304.54 286.4-5.6562-4.7631s-2.3815-0.29769-4.1677 0.89308-5.3585 5.6562-5.3585 5.6562-2.6792 1.7862-0.89307 3.2746 4.4654 2.0838 4.4654 2.0838l2.6792 3.2746s1.1908-3.5723 2.6792-4.4654 5.3585-3.5723 5.3585-3.5723l0.89308-2.3816z" fill="url(#ag)"/>
 </g>
</svg>
