<?xml version="1.0" encoding="UTF-8"?>
<svg version="1.1" viewBox="0 0 1080 2132" xmlns="http://www.w3.org/2000/svg">
 <path d="m663.62 255.95c-2.8164 0.35739-8.0467 1.6092-9.7901 2.3692-2.8611 1.2069-12.249 6.9736-14.663 8.9853-4.6045 3.8893-9.2983 11.444-10.55 17.166-0.26819 1.207-0.62575 7.6444-0.76001 14.305-0.35754 14.529 0.0448 17.792 3.0846 25.392l2.0117 5.0516-1.0729 2.9951c-1.52 4.1128-3.1742 7.3314-4.1129 7.8677-0.447 0.22361-1.6987 1.833-2.8164 3.5763-5.4537 8.5385-6.7948 10.192-9.8348 11.936-4.202 2.4139-6.3479 4.2916-9.8349 8.6725-5.8114 7.2867-15.646 21.681-18.776 27.493-1.0728 1.967-2.5929 4.5598-3.3528 5.8114-3.0846 4.8281-5.0514 9.4772-6.0796 14.529-0.5365 2.4587-1.0729 25.034-0.9389 37.104 0.2235 20.787 7.3314 46.581 20.296 73.94 8.7172 18.373 9.7901 21.86 10.639 34.914 0.3577 5.4538 0.8047 8.3149 1.7882 11.936 0.7599 2.6376 1.3411 5.275 1.3411 5.8115 0 0.5811-0.71535 2.6375-1.6094 4.6045-0.89403 2.0119-1.6987 4.6493-1.8329 6.0351-0.1788 2.1457-0.08945 2.6821 0.9834 4.2021 0.89406 1.2964 1.1624 2.1459 0.98354 3.1292-0.13414 0.76001-1.9222 5.0964-4.0233 9.656-4.4704 9.6559-5.9456 13.367-7.8681 19.357-3.889 12.16-5.0514 25.928-3.2185 37.194 1.9223 11.534 4.3363 18.284 11.891 33.349 5.0515 10.058 5.5879 11.355 6.2584 15.199 0.44702 2.6824 1.1176 4.7835 1.7434 5.7669 0.58116 0.894 1.1623 2.1905 1.3412 2.9505 0.31297 1.341-0.31299 11.757-1.8328 30.354-1.1178 13.813-1.0731 51.365 0.04453 62.541 0.4469 4.4256 1.1622 9.4772 1.6093 11.176l0.80466 3.1741-3.3976 3.5763c-3.9339 4.2019-6.2584 8.583-7.7338 14.663l-0.9834 3.934 1.0729 1.1177c0.89404 0.9387 0.9387 1.2517 0.4917 1.8774-1.1622 1.5648-7.1973 14.35-8.8066 18.686-2.1904 5.7667-7.555 22.084-8.9408 27.225-2.8163 10.326-3.2187 12.875-7.4207 44.48-1.207 9.4771-3.1294 23.156-4.2023 30.399-2.6821 18.06-4.1127 28.655-4.7385 35.539-0.4469 5.0068-0.62585 5.9456-1.5647 7.0632-2.1457 2.5481-2.1904 4.2023-0.35753 10.506 2.2799 7.8679 2.3246 8.449 0.71523 10.505-1.6988 2.101-1.7434 2.3692-2.3245 11.936-0.4918 8.0467-0.93895 12.606-1.7883 18.194-0.35756 2.3245-0.35756 4.1574 0.0447 6.9288 0.2681 2.0565 0.62575 5.2304 0.80446 7.0633l0.26834 3.3527 3.1292 0.581c3.5763 0.6707 30.265 1.252 34.958 0.7602 2.8611-0.313 2.8611-0.313 2.7271-1.6541l-0.1342-1.3411 11.623 0.0447c11.042 0.0895 11.668 0.1342 12.562 0.9834 0.93885 0.8941 1.7434 0.9387 18.82 1.2964 9.7902 0.2236 17.837 0.4025 17.926 0.4473 0.04468 0 0.0896 2.7268 0.0896 6.0796v6.0351l1.5644 0.6704c5.0517 2.1011 17.077 2.8163 35.763 2.1011l9.3877-0.3575 0.13416-1.2966 0.17894-1.2963 9.8794 0.2684c6.9738 0.1786 11.534 0.5362 15.289 1.162 7.8679 1.3861 19.088 1.967 30.399 1.699 13.545-0.4024 20.564-1.2073 24.766-2.9505l3.3081-1.3859 51.588-1e-4 51.543 3e-4 -0.08937-8.6278-0.13413-8.5832-45.553-0.1341c-44.659-0.0894-45.553-0.0894-46.76-0.9834-0.67055-0.4917-1.4754-0.8942-1.6988-0.8942-0.7152 0-0.1786 6.3034-8.1807-94.548-2.7268-34.422-2.4138-31.963-3.7549-31.963-0.93886 0-1.0729-0.26819-1.3411-2.3692-0.35777-3.3081-3.7552-42.379-6.9292-80.109-1.4753-17.703-4.0234-47.073-5.5879-65.268-1.5648-18.194-3.7998-44.033-4.9173-57.444-2.5036-29.996-5.0069-59.054-5.6327-65.178l-0.44704-4.6492 3.0398-5.6327c4.828-9.1642 5.141-9.8348 5.3646-11.802 0.26805-2.6377-2.9505-13.724-6.974-23.917-1.7434-4.4704-3.621-10.148-4.2468-12.964-0.62579-2.7716-1.4306-5.588-1.7436-6.2584-0.35756-0.71536-0.75986-2.9505-0.9386-5.0517-0.67066-8.27-4.2915-49.979-4.515-52.303l-0.26819-2.5036 2.0564-1.4753c3.3974-2.4138 4.2469-5.7668 2.2352-8.5382-1.4752-2.0117-1.4306-2.6377 0.447-4.6045 1.7881-1.8777 2.1011-2.9057 1.9221-5.9457-0.134-2.1458-0.1787-2.1904-1.6987-2.414-2.0116-0.2683-2.2799-1.4752-0.5812-2.5033 1.8777-1.1625 2.3694-1.9669 2.3694-3.7554 0-1.6538-0.76-2.7267-2.3247-3.2632-0.6704-0.22364-0.80457-0.80469-0.80457-2.9504 0-1.4753 0.22351-3.2185 0.44702-3.8446 0.31285-0.84937 0.31285-1.7434-0.08945-2.9951-0.62576-2.1905-2.2798-3.0399-5.7221-3.0399-2.1457 0-2.2351-0.04468-2.2351-1.2516 0-0.67048-0.9835-12.785-2.2352-26.912-1.2069-14.126-3.2186-37.775-4.4703-52.527s-2.3693-27.493-2.5034-28.342l-0.22354-1.4753-4.5598 0.31296c-2.5034 0.17892-4.7385 0.49172-4.9621 0.71536-0.44703 0.40228-0.26819 2.9504 4.4258 57.4 1.8328 21.145 3.6655 42.334 4.0679 47.073 0.447 4.7385 0.626 8.762 0.447 8.9407-0.1787 0.17871-3.4868 0.31293-7.3313 0.26825l-7.0184-6e-5 -5.5881-2.9056c-3.0845-1.5648-6.6161-3.3528-7.9125-3.934-1.7882-0.80474-2.4589-1.3858-2.7717-2.4588-0.26816-0.75989-1.5646-8.449-2.9057-17.032l-2.4587-15.646-2.1458-4.0233-2.1457-4.0233-0.0447-7.1526c0-6.035-0.22363-8.0467-1.2517-12.875-1.2072-5.7222-3.6658-13.545-6.6611-21.1-5.1855-13.277-12.875-26.017-20.206-33.528-2.3246-2.414-4.247-4.4703-4.247-4.6045 0-0.0894 0.8048-1.0729 1.7882-2.1456 0.98354-1.073 1.7882-2.3247 1.7882-2.8164 0-2.3247 1.967-6.035 4.7834-9.0302l2.9056-3.0398 2.727 1.3857c7.8678 3.934 12.472 5.3644 18.016 5.4538 3.0399 0.04492 3.2189 0 5.2752-1.6538 1.1175-0.93894 2.5033-2.5481 2.9951-3.4869 0.80454-1.6094 0.84934-2.1012 0.40244-5.1412-0.67064-5.0514-0.62598-5.856 0.58106-6.169 2.0564-0.53641 2.2352-0.89401 1.2517-2.548-1.2964-2.0565-1.1624-2.8612 0.44715-3.5316 0.98325-0.40243 1.2516-0.75992 1.028-1.2964-0.7153-1.7434-1.028-3.9786-0.76-5.6326 0.44716-3.0848 0.626-3.2186 4.7835-3.5764 3.0398-0.22348 3.9339-0.49172 4.6491-1.2516 1.967-2.1905 1.7882-2.9952-3.0398-12.517l-4.4704-8.8961 1.3859-1.6987 1.3857-1.6987-0.71521-5.2302c-0.44713-3.1294-0.71533-8.315-0.71533-12.92v-7.7338l2.5035-2.4138c6.3479-6.0798 6.7503-6.7056 5.0514-8.2703-0.5365-0.44699-2.1009-2.4588-3.4868-4.3809-2.4587-3.5315-8.0466-9.2985-10.014-10.416-0.53638-0.31305-1.7434-0.53662-2.6822-0.58133-1.4306 0-2.0564-0.31271-3.5316-1.8328-1.8329-1.833-1.8776-1.833-4.3362-1.5647-7.6444 0.84936-9.1643 0.84936-12.964-0.17874-3.7103-1.028-3.7998-1.028-6.7503-0.26824-2.9057 0.76003-3.0846 0.76003-6.8844-0.13405-3.6656-0.89413-9.7453-1.1624-13.903-0.62576zm87.575 303.32c0.62587 5.4537 3.8891 43.854 3.7549 44.212-0.134 0.40222-3.3081-1.967-5.8561-4.3364-2.5929-2.414-12.74-18.328-16.496-25.883-1.5199-2.995-3.9339-9.2088-3.9339-10.058 0-0.5811 2.9057-2.0116 5.141-2.5928 1.8327-0.4917 2.2798-0.5365 9.9689-1.4752 3.1293-0.35755 4.5598-0.71534 4.5598-1.1176 0-0.31284 0.44715-0.67054 1.0282-0.75989 0.5365-0.08945 1.1176-0.22351 1.2964-0.26831 0.17884 0 0.40237 1.0282 0.5365 2.28zm-25.615 51.409c6.7056 8.896 9.3878 12.785 9.7008 13.992 0.22354 0.8048 0.13404 2.5482-0.22351 4.4257-0.67065 3.5764-0.5365 4.1574 1.6988 9.1196 2.101 4.5151 3.5316 6.6608 7.3761 10.818 3.0844 3.3975 4.1574 5.3645 6.169 11.489 1.4306 4.2915 7.0634 13.948 9.4773 16.183l1.6541 1.5199 1.9222 21.95c1.0281 12.07 3.0399 35.405 4.4257 51.901 1.3858 16.451 3.4868 41.217 4.6938 54.986s3.5316 40.725 5.1408 59.903c1.6094 19.178 3.8446 45.106 4.9176 57.579 1.1176 12.517 2.0114 23.022 2.0114 23.38 0 0.35755-0.26804 0.62585-0.6257 0.62585-0.35755 0-0.76 0.17884-0.89405 0.4022-0.13405 0.22366 0.04455 3.8893 0.40225 8.136 0.35764 4.2916 2.1458 27.09 4.0232 50.694 1.8328 23.604 3.7552 47.744 4.2916 53.6 0.4917 5.9009 0.71521 10.863 0.53625 11.042-0.447 0.4022-7.4208-0.5813-11.31-1.6095-5.409-1.3855-13.947-4.649-14.484-5.4984-0.13403-0.2235-2.5034-1.5647-5.275-2.995-2.7718-1.4307-6.3032-3.4871-7.8679-4.5599-2.5481-1.8328-8.449-7.9126-11.444-11.847l-1.2517-1.6538 0.08934-7.5104c0.0447-11.265-1.0729-21.368-2.8611-25.615-1.2517-3.0398-3.3974-5.3197-9.0748-9.7454-6.4373-5.007-9.656-8.1361-12.249-11.936-2.0563-3.0399-2.1011-3.8445-0.89417-9.9689 1.6095-8.0467 1.9671-14.082 1.699-30.22-0.1339-8.3595-0.5809-19.267-0.9834-24.185-0.89403-10.327-0.7153-17.926 0.62586-29.504 0.49184-4.2021 1.1175-11.221 1.3858-15.646l0.5364-8.002 2.2351-5.409c1.2072-2.9506 2.4141-5.9904 2.6377-6.7057 0.1787-0.76 0.5812-5.3644 0.8046-10.282 0.2683-4.9175 0.9387-12.025 1.4752-15.736l0.93884-6.8396-0.93874-5.2302c-0.9835-5.1857-1.2964-11.176-2.1905-37.462-0.13416-4.694 0-15.244 0.26819-23.469 0.93891-25.928-0.35748-50.292-3.5316-66.966-1.2069-6.348-1.1176-8.4046 0.626-14.886 3.6656-13.322 4.4703-20.027 4.4703-37.283 0-10.237-0.13415-13.679-0.7153-16.317-0.40237-1.8329-1.2517-5.7668-1.8775-8.7173-1.2964-6.0797-1.4753-9.1642-0.5365-9.1642 0.31286 0 1.6987 1.4304 2.9951 3.2186zm-78.276 319.59c0 1.8775 0.26819 5.0962 0.62585 7.1525 0.35767 2.0564 0.9834 6.0798 1.3858 8.8961 0.40235 2.8163 2.0562 12.562 3.6208 21.681 1.6092 9.0748 3.2634 18.731 3.755 21.458 1.967 11.265 2.3247 13.053 3.3528 17.39 1.9224 8.0021 4.4259 14.037 6.527 15.602 1.8327 1.2964 1.9668 2.2352 0.67044 4.4256-1.5647 2.6822-2.6375 7.1974-2.4141 10.014 0.13416 1.7879 0.626 2.9951 1.833 4.828 1.6093 2.4586 2.5928 5.3644 2.3245 6.8844-0.62575 2.995-0.71523 3.2186-1.6093 3.2186-1.4752 0-3.7551-1.2069-9.5666-5.0962-7.9125-5.2306-20.877-14.663-21.145-15.378-0.13416-0.3575 0.447-3.9786 1.2517-8.0914 1.2517-6.4372 1.4304-8.002 1.2069-11.891-0.4023-7.2866-2.5928-13.456-7.7784-22.039-2.727-4.515-3.0399-5.9455-1.6094-7.9571 2.9952-4.247 7.2867-13.724 9.3432-20.519 1.8775-6.2138 5.2304-21.324 6.7056-30.264 0.8941-5.4092 1.5199-5.4986 1.52-0.31286z"/>
 <path d="m213.09 536.68c-0.19257 0.14453-0.33696 10.349-0.33694 22.624v22.287h-24.55v-5.0061c0-2.84 0.19251-5.1988 0.48134-5.3431 0.2888-0.19263 0.48134-3.7066 0.48134-8.9533l1e-5 -8.6162h-48.136l-3e-5 8.6643v8.6644l11.938 0.09619 11.89 0.14454 0.14442 25.608 0.0963 25.656h23.106l0.09623-10.734 0.14443-10.686 12.13-0.14441 12.178-0.09633 0.09631 217.67 0.14441 217.72 10.012 0.1444 9.9641 0.0962v-73.214l3.7546 0.1444 3.7064 0.1444 0.14439 47.991 0.0963 48.039 20.795 0.0964 20.843 0.1444-0.24067 2.1662c-1.0589 9.7713 1.6847 18.532 8.0386 25.945 2.7919 3.225 8.0868 6.6427 13.093 8.4238 3.7064 1.2996 4.7173 1.4922 9.6753 1.444 8.5682 0 14.681-2.1179 20.795-7.1721 3.6584-2.9846 6.2095-6.4021 8.3757-11.071 2.2624-5.0542 2.84-7.9423 2.7919-14.344l-0.04815-5.632 50.783 0.0967 50.783 0.1444-0.0963 5.1024c-0.19255 9.8677 2.3586 16.318 9.0494 23.105 3.4176 3.4657 4.9098 4.5727 8.2312 6.1612 9.4828 4.5729 19.254 4.4285 28.833-0.337 6.6427-3.3214 12.804-10.59 15.5-18.388 0.91461-2.5511 1.1072-4.2839 1.2036-9.3862l0.09618-6.2577 10.734-0.2409 10.782-0.2406 0.14428-47.991 0.09619-47.991 6.1615-0.1444 6.1132-0.1444 0.14453-29.796c0.09617-23.538-1.3e-4 -29.892-0.48143-30.229-0.3369-0.19251-3.1288-0.38501-6.2095-0.38501h-5.5836l-4.4287-7.0761-4.3804-7.0277v-6.4983c0-6.0171-0.0481-6.4502-0.9626-6.6909-0.62576-0.1444-0.9628-0.6739-0.9628-1.3476 0-0.96276 0.67395-1.3479 5.7764-3.129l5.7762-2.0698v-1.7328c0-1.5885-0.4813-2.2623-5.6319-7.3646l-5.6798-5.5837-20.458-0.19263-20.458-0.14443-0.14443 4.5249c-0.09635 3.3211 0.04803 4.669 0.4813 4.9578 0.33693 0.1925 2.2624 0.3851 4.2841 0.3851l3.6583-1e-4 0.33703 1.8292c0.385 2.5512 0.33692 4.3323-0.14444 5.2949-0.24072 0.43336-1.7329 3.8509-3.2733 7.5092-1.5404 3.7064-2.84 6.8834-2.9363 7.0759-0.24063 0.57766 1.3959 0.9147 2.3105 0.43325 0.48135-0.2406 3.4177-4.5728 6.4983-9.627 3.0808-5.006 5.8727-9.1458 6.1615-9.1458 0.28872 0 2.0217 0.57766 3.8027 1.2997 2.84 1.1071 3.4657 1.5884 4.8135 3.6583l1.5404 2.3585-1.1072 0.81834c-1.0589 0.81825-1.107 1.059-0.91458 7.0759l0.1444 6.2095-1.9736 2.8882c-1.0589 1.5885-3.0806 4.7654-4.4765 7.1241l-2.503 4.1878-40.771-0.09631-40.771-0.14444-0.24074-19.254-0.24069-19.254-1.2996-2.4551c-0.72205-1.3478-3.1287-4.284-5.2949-6.4982-3.9471-3.947-5.5837-6.4502-7.461-11.504-0.62579-1.6847-0.86649-4.621-1.0591-13.478-0.2888-10.83-0.33688-11.312-1.2515-11.456-2.7437-0.5294-2.7919-2.0698-0.09628-4.5729 2.2624-2.166 8.2312-6.1133 9.1458-6.1133 0.28882 0 1.3478 1.4442 2.2624 3.2251 3.899 7.4129 12.563 19.399 14.007 19.399s1.1071-1.2034-1.4441-4.9579c-3.9472-5.9208-7.1241-11.938-8.52-16.318l-1.3478-4.1876 1.1071-1.2035c0.81833-0.86645 1.781-1.2034 4.0433-1.4922 6.0651-0.6738 5.632-0.2889 5.632-4.8618 0-2.2141-0.14444-4.0433-0.33696-4.0433-0.2407 0-2.3105-0.38501-4.7173-0.81837-3.2733-0.5776-8.1831-0.81835-19.688-0.96264l-15.355-0.19276-2.9362 1.3959c-3.6103 1.6847-6.1614 3.7546-13.141 10.397-5.4394 5.1985-5.9688 6.065-4.958 8.0384 0.48136 0.86645 0.91459 0.91455 6.6427 0.62585 5.6319-0.28869 6.3058-0.2406 8.5682 0.72205 2.9363 1.2997 3.9953 2.7438 2.9844 4.3322-0.33698 0.57765-1.1552 1.1554-1.8292 1.2998-0.67389 0.14428-1.4921 0.33679-1.781 0.48134-0.48143 0.0962-0.62573 2.4547-0.62573 9.5307 3e-5 15.163-1.4441 19.543-8.7607 26.86-2.3106 2.2624-4.6211 5.006-5.1025 6.0169-1.781 3.5138-2.0216 6.402-2.0216 24.26l6e-5 17.281-13.334-0.09625-13.382-0.14441-0.2408-9.1457c-0.33697-10.59-0.96267-13.478-3.8509-17.569-4.5247-6.3539-5.8243-8.4719-6.3057-10.205-0.2407-1.0591-0.57762-2.1661-0.72206-2.503-0.14438-0.33692 0.2407-1.107 0.77021-1.7329 0.77015-0.86644 0.9627-1.4922 0.67389-2.4068-0.19254-0.67385-0.43324-4.3803-0.52952-8.2792-0.19252-6.8354-0.24062-7.1241-1.2515-7.3647-0.57767-0.14456-5.3912-0.19276-10.686-0.14456l-9.6271 0.14456-0.14444 6.7389c-0.04816 3.7064-0.33689 6.9315-0.57761 7.1722-0.72205 0.72204-0.57767 3.3214 0.24072 4.4766 0.62571 0.86645 0.62571 1.2998 0 3.3214-0.67395 2.3586-1.5885 3.8989-5.7282 9.6752-3.8028 5.3433-4.2841 7.2205-4.5729 18.195l-0.28873 9.6271-9.7716 0.14441-9.7234 0.09632-0.48132-1.2515c-0.81833-2.1661-2.0217-13.767-1.7811-17.233 0.28885-4.5249-0.57754-7.028-3.2732-9.2421-2.2624-1.8292-4.0915-5.1506-4.0915-7.3167 0-0.72204-0.33692-1.7811-0.72205-2.3106-0.43326-0.5774-0.5776-1.5403-0.38507-2.6955 0.33698-2.2626-0.14438-4.2359-1.059-4.2359-0.43327 0-0.72205-0.4334-0.72205-1.1072 0-1.1553-1.5885-2.2624-3.2733-2.2624-0.48135 0-1.1071-0.2406-1.4441-0.57752-0.38507-0.38513-1.2034-0.33703-3.3214 0.33692-2.8882 0.86645-4.0915 1.8291-3.7064 2.8882 0.14441 0.33692-0.19257 0.72207-0.77019 0.86633-0.96274 0.24074-1.059 0.57774-0.91458 2.8401 0.04817 1.396-0.09627 3.0806-0.38507 3.7545-0.28883 0.67393-0.77019 2.4551-1.1071 4.0434-0.52948 2.5031-0.91459 3.1288-3.5621 5.7764l-3.0326 2.9362-0.33689 7.846c-0.28881 7.028-1.2997 15.404-2.0218 16.559-0.14441 0.1925-0.48134 0.28881-0.72202 0.1444-0.24068-0.1925-0.43329-58.485-0.43324-150.95l-5e-5 -150.62 30.807-1e-4 30.807 1e-4 8e-5 134.78 66.909-2.7e-4 66.909 5e-4 -2e-5 -67.39 2e-5 -67.39 33.936-1.2e-4 33.936 1.2e-4 -0.09618-9.5309-0.14444-9.4828-33.791-0.1444-33.839-0.0963v-18.292l-66.909-2.4e-4h-66.909v18.292h-61.614l2e-5 -22.624v-22.624l-9.7715-2.3e-4c-5.3912 2.3e-4 -9.9641 0.1445-10.108 0.3369z"/>
</svg>
