<?xml version="1.0" encoding="UTF-8"?>
<svg viewBox="0 0 200 175" xmlns="http://www.w3.org/2000/svg" xmlns:xlink="http://www.w3.org/1999/xlink">
 <defs>
  <linearGradient id="b">
   <stop stop-color="#868686" offset="0"/>
   <stop stop-color="#e8e8e8" offset="1"/>
  </linearGradient>
  <linearGradient id="a">
   <stop stop-color="#000409" offset="0"/>
   <stop stop-color="#000409" stop-opacity="0" offset="1"/>
  </linearGradient>
  <linearGradient id="c">
   <stop stop-color="#ddd" offset="0"/>
   <stop stop-color="#fff" offset="1"/>
  </linearGradient>
  <linearGradient id="d">
   <stop stop-color="#fff" offset="0"/>
   <stop stop-color="#fff" stop-opacity="0" offset="1"/>
  </linearGradient>
  <linearGradient id="s" x1="79.201" x2="91.427" y1="54.738" y2="156.74" gradientTransform="matrix(1.1767 0 0 .84983 -.68361 32.417)" gradientUnits="userSpaceOnUse">
   <stop stop-color="#3b7fc5" offset="0"/>
   <stop stop-color="#396da1" offset="1"/>
  </linearGradient>
  <linearGradient id="j" x1="103.45" x2="83.031" y1="24.839" y2="19.991" gradientTransform="matrix(.6418 .069493 -.16675 1.5401 -5.9436 17.026)" gradientUnits="userSpaceOnUse" spreadMethod="reflect">
   <stop stop-color="#2a832d" stop-opacity=".94845" offset="0"/>
   <stop stop-color="#6bed71" stop-opacity=".82474" offset="1"/>
  </linearGradient>
  <linearGradient id="t" x1="51.307" x2="34.179" y1="71.739" y2="135.79" gradientUnits="userSpaceOnUse" xlink:href="#a"/>
  <linearGradient id="r" x1="43.776" x2="37.945" y1="47.679" y2="74.253" gradientTransform="matrix(2.1562 0 0 .46378 2.8791 26.819)" gradientUnits="userSpaceOnUse" xlink:href="#d" spreadMethod="reflect"/>
  <linearGradient id="q" x1="36.66" x2="34.214" y1="54.479" y2="81.604" gradientTransform="matrix(1.0108 -3.4011e-16 .13193 .98932 -9.096 26.819)" gradientUnits="userSpaceOnUse" xlink:href="#c"/>
  <linearGradient id="p" x1="163.94" x2="174.68" y1="66.834" y2="101.41" gradientTransform="matrix(.8528 0 0 1.1726 2.8791 26.819)" gradientUnits="userSpaceOnUse" xlink:href="#d" spreadMethod="reflect"/>
  <linearGradient id="o" x1="115.6" x2="127.99" y1="60.11" y2="79.868" gradientTransform="matrix(1.3024 0 0 .76783 2.8791 26.819)" gradientUnits="userSpaceOnUse" xlink:href="#a"/>
  <linearGradient id="n" x1="19.055" x2="60.604" y1="110.86" y2="-14.248" gradientTransform="matrix(2.1901 0 0 .45661 2.8791 26.819)" gradientUnits="userSpaceOnUse" xlink:href="#a"/>
  <linearGradient id="m" x1="542.23" x2="549.93" gradientTransform="matrix(.38725 3.3697e-19 2.8346e-17 5.2537 -96.214 21.611)" gradientUnits="userSpaceOnUse" xlink:href="#d" spreadMethod="reflect"/>
  <linearGradient id="l" x1="89.196" x2="106.57" y1="29.041" y2="23.232" gradientTransform="matrix(.82322 0 0 1.2148 0 22.5)" gradientUnits="userSpaceOnUse" xlink:href="#b" spreadMethod="reflect"/>
  <linearGradient id="k" x1="98.578" x2="86.999" y1="51.009" y2="56.07" gradientTransform="matrix(1.3579 0 0 .73641 0 22.5)" gradientUnits="userSpaceOnUse" xlink:href="#c" spreadMethod="reflect"/>
  <linearGradient id="y" x1="95.439" x2="99.515" y1="48.82" y2="3.6301" gradientTransform="matrix(1.0892 .22575 -.10413 .89296 -2.2903 -.21082)" gradientUnits="userSpaceOnUse" xlink:href="#c"/>
  <linearGradient id="x" x1="90.016" x2="87.464" y1="75.273" y2="42.978" gradientTransform="scale(1.1802 .84735)" gradientUnits="userSpaceOnUse" xlink:href="#b"/>
  <linearGradient id="w" x1="95.439" x2="99.515" y1="48.82" y2="3.6301" gradientTransform="matrix(1.1099 .070135 .020428 .86501 -.78689 17.121)" gradientUnits="userSpaceOnUse" xlink:href="#c"/>
  <linearGradient id="v" x1="90.016" x2="87.464" y1="75.273" y2="42.978" gradientTransform="matrix(1.1688 -.15716 .11724 .80767 1.5106 17.017)" gradientUnits="userSpaceOnUse" xlink:href="#b"/>
  <linearGradient id="u" x1="84.461" x2="83.232" y1="106.35" y2="80.095" gradientTransform="scale(1.5152 .65999)" gradientUnits="userSpaceOnUse" xlink:href="#b" spreadMethod="reflect"/>
  <radialGradient id="e" cx="56.758" cy="178.72" r="54.056" gradientTransform="scale(1.5979 .62583)" gradientUnits="userSpaceOnUse" xlink:href="#a"/>
  <radialGradient id="i" cx="60.952" cy="7.3032" r="1.5434" gradientTransform="matrix(1.0924 0 0 .91542 0 22.5)" gradientUnits="userSpaceOnUse" xlink:href="#a" spreadMethod="reflect"/>
  <radialGradient id="h" cx="80.399" cy="1.9145" r="9.7997" gradientTransform="matrix(.70903 0 0 1.4104 0 22.5)" gradientUnits="userSpaceOnUse" xlink:href="#a"/>
  <radialGradient id="g" cx="59.478" cy="17.472" r="19.74" gradientTransform="matrix(.56091 .43013 -.61051 .87131 24.27 -1.6579)" gradientUnits="userSpaceOnUse" xlink:href="#d"/>
  <radialGradient id="f" cx="106.37" cy="58.829" r="12.274" gradientUnits="userSpaceOnUse" xlink:href="#a"/>
 </defs>
 <path transform="matrix(1.025 0 0 .80851 -4.4267 50.396)" d="m177.07 111.85c0 18.684-38.671 33.83-86.374 33.83s-86.374-15.146-86.374-33.83 38.671-33.83 86.374-33.83 86.374 15.146 86.374 33.83z" fill="url(#e)"/>
 <path transform="matrix(.61076 -.0066595 -.025607 .27621 58.32 131.77)" d="m177.07 111.85c0 18.684-38.671 33.83-86.374 33.83s-86.374-15.146-86.374-33.83 38.671-33.83 86.374-33.83 86.374 15.146 86.374 33.83z" fill="url(#e)" opacity=".27488"/>
 <path d="m13.612 69.008 6.5717 64.803c0.08483 1.4421 0.67862 4.1565 2.5448 4.8352l83.8 30.658c2.8841 1.4421 7.7593 0.84828 10.134-0.25448l56.719-31.93c2.5448-1.1028 4.3262-2.969 4.5807-5.5986l7.3352-61.076c0.42414-3.8023 3.9021-2.2605 4.3262-5.5538l0.89069-8.0162c0.16965-1.0603-0.9331-2.2479-2.4176-2.6721l-107.96-14.461c-2.1631-0.59379-5.0448-0.55138-7.0807 0l-61.613 13.577c-1.6117 0.50896-2.7145 2.0358-2.5448 3.0538v7.6345c0.38413 2.6995 3.5676 1.0281 4.7151 5z" fill="url(#s)" fill-rule="evenodd" stroke="#00287b" stroke-width=".3125"/>
 <path d="m20.153 53.893 93.59 20.005 67.319-18.163-104.01-14.396-56.9 12.554z" fill="url(#n)" fill-rule="evenodd" opacity=".59716" stroke="url(#r)" stroke-linejoin="round" stroke-opacity=".59444" stroke-width="1.25"/>
 <path d="m13.563 66.954 95.284 23.419 1.2543 76.086-90.991-52.061-5.5474-47.444z" fill="url(#t)" fill-rule="evenodd" opacity=".35071"/>
 <path d="m32.31 86.1c-0.30348 0.04672-0.60114 0.17931-0.87916 0.4375l-3.1207 6.125 7.1106 8.0938 3.0978-6.5312c-1.4306-3.9752-4.0842-8.4521-6.2085-8.125zm1.9313 0.1875c1.8882 1.4677 3.1565 3.7914 4.2898 6.625l3.0523 7.6562-1.8708 0.96875 7.1647 2.875 3.2498-7.0312-2.1542 0.71875-1.7918-4.5312c-0.57525-1.6833-2.0676-3.5756-3.3147-4l-8.6251-3.2812zm-10.785 9.3438 2.248 3.0312-1.6666 4.375c-0.83661 1.9778 1.0054 4.9323 2.1335 6.1562 1.1106 1.205 2.7694 1.9567 4.3063 2.5312l2.3874-5.0625 2.1876 2.3438-4.2211-10.562-7.3751-2.8125zm28 10.781-6.327 2.9375 3.7669 9.5c3.2079 1.5127 7.0712 1.4556 6.0708-3.2188l-3.5106-9.2188zm-26.931 1.2188 5.1753 13.031c1.0009 1.9202 2.7497 2.9592 4.5105 3.5938l4.7188 1.875-0.64402-10.688-9.0147-3.625c-1.3879-0.43287-3.2188-1.5332-4.7459-4.1875zm19.417 6.875-2.9706 7.25 4.069 10.125-0.11884-3.4688 3.2021 1.2812c1.1839 0.60151 2.6501 0.11014 3.1187-1.2188l3.4727-8.875c-1.2463 1.3384-2.9671 1.1348-4.9854 0.34375l-5.4396-2.125-0.348-3.3125z" fill="url(#q)" fill-rule="evenodd"/>
 <path d="m68.64049,104.5047 .26751-2.85846c.04833-.49204-.3277-1.01742-.47644-1.1217-.24809-.15688-.43896-.0046-.39524.55441l.25223,3.29955 .35194.1262m1.89834.68075 .2675-2.85846c.04833-.49205-.3277-1.01742-.47644-1.1217-.24809-.15689-.43896-.0046-.39523.55442l.25223,3.29953 .35194.12621m5.46854,1.79125 2.04733,8.74838 .21329.07649 1.40722-9.98855c.03483-.2422.16118-.68929.6091-.52866l-.06059-.32735-1.91966-.6884 .06059.32735c.17063.06119 1.00698.27621.86767,1.24501l-1.00891,6.92231-1.77687-7.71754c-.29624-1.27781.25439-1.04639.585-.92784l-.06059-.32735-2.47424-.88726 .06059.32735c.20262.07267.66008.33859.86094,1.20864l.31981,1.40511-.76011,5.73807-1.76285-7.69553c-.29624-1.2778.2544-1.04638.585-.92782l-.06059-.32736-2.47423-.88726 .06059.32735c.20262.07266.64942.33475.86094,1.20864l2.6791,11.3011 .22396.08031 .91749-7.68519m9.18151,9.74463c-.14541.23651-.39633.3333-.62536.387s-.70165-.13276-1.13436-.69543c-.3693-.489-.65378-1.54187-.69297-2.50674 .51418-.01937 1.11705.01005 1.66268-.2697 .44515-.2309.72531-.70773.76751-1.60948 .04333-1.0032-.56449-1.86639-1.22571-2.1035-1.15179-.41304-2.35323,1.3804-2.09083,4.08931 .13457,1.37263.71316,2.61586 1.2037,3.11437 .67408.68319 1.1136.63706 1.3387.6159 .5894-.04333 1.12502-1.02282 1.17274-1.14154 .05503-.13308-.05608-.41064-.13974-.27085l-.23637.39066m-2.43412-3.19904c-.01729-1.00798.01084-1.60915.33146-2.51293 .12914-.37817.36044-.63481.55747-.69998 .29022-.09969.58713.1596.72457.95598 .17783,1.0146-.09063,2.36157-1.61351,2.25693m-18.50127,8.22224 .72407.36153 2.36249,6.4164 1.55706.55836-.06059-.32734c-.17064-.06119-.68028-.44772-.83629-.86022l-2.0937-5.55594c.83189-.02429 1.58746-.24575 1.6095-1.57919 .03614-1.95664-1.11776-3.77971-2.68547-4.3419l-2.62354-.94081 .06059.32735c.30928.11091.82342.41414.83905,1.25173l.21404,8.6343c.03355,1.14964-.26449.99183-.58443.87711l.06059.32734 2.4529.87961-.06059-.32734c-.30928-.11091-.82342-.41415-.83905-1.25173l-.09662-4.44926m-.11008-4.522c-.0039-.29005.04663-.33984.21166-.41649 .3918.07258.95424.20635 1.36113.84467 .44899.70434.63022,1.41454.66604,2.36125 .06771,1.92594-.73106,1.86024-2.14047,1.18503l-.09836-3.97446m8.69545,12.04931c-.14541.2365-.39633.3333-.62537.38698s-.70164-.13274-1.13436-.69542c-.3693-.48899-.65378-1.54186-.69296-2.50674 .51418-.01937 1.11704.01005 1.66268-.2697 .44516-.23089.72531-.70773.76751-1.60947 .04333-1.00321-.56449-1.8664-1.22571-2.10351-1.15179-.41304-2.35324,1.38041-2.09083,4.0893 .13457,1.37265.71316,2.61587 1.20371,3.1144 .67408.68319 1.1136.63705 1.3387.61588 .5894-.04332 1.12501-1.02282 1.17274-1.14154 .05503-.13308-.05609-.41064-.13974-.27084l-.23636.39066m-2.43413-3.19905c-.01729-1.00798.01084-1.60915.33146-2.51291 .12914-.37818.36044-.63482.55747-.7 .29022-.09968.58713.15961.72457.95598 .17782,1.0146-.09064,2.36157-1.61351,2.25693m7.02549,5.01531c-.18247.35905-1.05652.96249-1.82705-.67216-.23009-.49001-.65098-1.47293-.6553-3.00261-.02058-1.67135.17205-2.62103.73229-2.9295 .33401-.18585.6259-.11514.82403.04081 .10608.08898.33227.28895.27891.59242-.03819.22401-.02253.739.13797,1.06823s.34067.49571.46922.49086c.19983.00376.27452-.29207.26949-.48065-.01343-.39534-.28504-1.00211-.5376-1.39831-.26322-.40002-.40186-.44974-.7392-.60467-1.37069-.62737-2.40535.61463-2.22717,3.51407 .1272,2.03217.8444,3.64772 2.09105,4.19665 .21666.09467.5439.19504.961-.07987 .26609-.17624.59283-.67033.6361-1.02835-.00166-.17039-.08135-.38575-.16164-.22776l-.25209.52084m2.63598,4.32415c-.29634-.31002-.64435-.46877-.68818-.06-.01966.16273.00836.52935.20086.87003 .17847.31871.57923.54731.82679.43234 .31941-.15713.63719-.80723.71411-.9834 .45423-1.04265.84287-2.92382 1.17826-5.46928 .07023-.53513.14166-1.81693.10634-2.16917-.05102-.54465-.21875-1.50471-.6964-1.87975-.44959-.33101-.51081.03755-.51028.30941 .00333.34078.3906.81924.65438,1.16853 .18633.2536.20032.59819.23342.83079 .13457,1.37264-.3484,3.38977-.45171,3.69231-.62787-2.26267-1.21369-4.13673-2.11156-6.51319-.09708-.25554-.10325-.34265-.3564-.36551l-1.27702-.06743 .06115.27663c.27786.04871.67699-.21567 1.29764,1.41617 .56172,1.47487 1.49998,4.06959 2.09299,6.89705-.15278.89605-.41443,1.63421-.80517,2.10534l-.46922-.49087m6.82069-.93296c-.18247.35904-1.05653.96249-1.82704-.67215-.23009-.49003-.65098-1.47294-.6553-3.00261-.02059-1.67135.17205-2.62103.73229-2.9295 .33401-.18585.62589-.11515.82403.0408 .10608.08898.33227.28896.27891.59243-.0382.22401-.02253.739.13797,1.06823s.34067.49571.46922.49086c.19983.00375.27452-.29208.26949-.48066-.01343-.39533-.28505-1.00211-.5376-1.39831-.26322-.40001-.40186-.44973-.7392-.60467-1.37069-.62737-2.40535.61464-2.22717,3.51407 .1272,2.03218.8444,3.64773 2.09105,4.19666 .21666.09466.5439.19503.961-.07987 .26609-.17626.59283-.67033.63609-1.02836-.00167-.1704-.08135-.38575-.16164-.22776l-.2521.52084m2.41964-8.89537c-.01119-.27569-.02239-.55137-.09757-.85001l-1.46225-.09988 .06059.32735c.56524.2027.70781.21987.73354,1.11202l.26173,8.83817c.04195,1.3564.62511,1.87115.95462,1.7686 .47265-.13615.6153-.76416.75681-1.2907 .08928-.32455.02477-.61936-.10212-.44412-.10162.15033-.15334.94679-.42897,1.01773-.44739.11124-.39395-.83742-.41355-1.31986l-.26283-9.0593m5.4035,11.53099c-.14541.2365-.39634.3333-.62537.38699s-.70164-.13275-1.13436-.69543c-.3693-.48899-.65378-1.54185-.69296-2.50673 .51417-.01939 1.11704.01004 1.66268-.26971 .44515-.2309.72531-.70774.76751-1.60946 .04333-1.00322-.5645-1.8664-1.22571-2.10352-1.1518-.41304-2.35324,1.38041-2.09084,4.0893 .13457,1.37265.71316,2.61586 1.20371,3.11439 .67407.6832 1.1136.63706 1.3387.6159 .58939-.04333 1.12501-1.02283 1.17274-1.14156 .05503-.13308-.05609-.41062-.13974-.27083l-.23636.39066m-2.43412-3.19903c-.01729-1.00799.01084-1.60917.33146-2.51293 .12914-.37818.36044-.63482.55747-.7 .29022-.09967.58713.15961.72457.95598 .17782,1.01461-.09064,2.36158-1.6135,2.25695m4.80741,2.28425c.07604-2.33285.17493-3.19729.28515-5.07641 .10909-1.77766-.03284-2.49076-.17145-2.86306-.15937-.43071-.34347-.56464-.46135-.55597-.22509.02116-.27058.25953-.29756.43663-.04212.25657-.01137,1.33729.06654,2.35002l.40523,5.57868 .17343.13011m-.47006,2.14061c.09425.50922.40293.99347.70154,1.10055s.45919-.20887.36494-.7181-.40292-.99346-.70154-1.10053-.45919.20886-.36494.71808m3.21125-5.6741 .26751-2.85845c.04832-.49205-.32771-1.01742-.47646-1.1217-.24809-.15688-.43896-.0046-.39523.55442l.25223,3.29953 .35194.1262m1.89833.68075 .2675-2.85846c.04833-.49205-.3277-1.01741-.47644-1.12169-.24808-.15688-.43895-.0046-.39523.55442l.25223,3.29953 .35194.1262" fill="#fff" stroke="#fff" stroke-width=".75451"/>
 <path d="m117.81 93.324 66.097-21.953-4.3804 35.105c-5.7333 37.183-56.51 6.673-64.279 58.87l2.5629-72.022z" fill="url(#p)" fill-rule="evenodd" opacity=".26066"/>
 <path transform="matrix(1 .0020882 -.007633 .99997 0 0)" d="m113.76 92.189h0.46619a2.5192 1.4394 0 0 1 2.5192 1.4394v71.8a2.5192 1.4394 0 0 1 -2.5192 1.4394h-0.46619a2.5192 1.4394 0 0 1 -2.5192 -1.4394v-71.8a2.5192 1.4394 0 0 1 2.5192 -1.4394" fill="url(#m)" opacity=".34597"/>
 <path d="m91.241 35.522 46.558 2.1125-5.3487 29.554-44.864-2.8349 3.6549-28.832z" fill="url(#w)" stroke="url(#v)" stroke-linecap="round" stroke-linejoin="round" stroke-width=".61315"/>
 <path d="m185.7 68.491-66.918 22.037c-3.3083 1.0179-7.249 1.1015-10.001-0.14907l0.25938 22.328c1.6541-0.25448 3.6208-0.08358 6.4999-0.80336s66.58-23.033 66.58-23.033l3.5797-20.379z" fill="url(#o)" fill-rule="evenodd" opacity=".40758"/>
 <path transform="matrix(.6088 0 0 1.3455 60.112 -24.537)" d="m118.33 58.829a11.961 12.088 0 1 1 -23.921 0 11.961 12.088 0 1 1 23.921 0z" fill="url(#f)" opacity=".55924"/>
 <path d="m86.207 31.458 45.807 8.6159-9.5461 29.672-44.025-9.1249 7.7647-29.163z" fill="url(#y)" stroke="url(#x)" stroke-linecap="round" stroke-linejoin="round" stroke-width=".625"/>
 <path d="m12.953 54.711 7.1255-1.3778 94.009 21.184 67.947-19.192 5.8531 0.40356-73.8 22.351-101.13-23.369z" fill="#fff" fill-rule="evenodd" opacity=".20379"/>
 <path transform="matrix(.97133,.23774,0,1,0,0)" d="m12.761 52.349h101.19a2.3868 2.0711 0 0 1 2.3868 2.0711v6.2946a2.3868 2.0711 0 0 1 -2.3868 2.0711h-101.19a2.3868 2.0711 0 0 1 -2.3868 -2.0711v-6.2946a2.3868 2.0711 0 0 1 2.3868 -2.0711" fill="#000409" fill-opacity=".46667" opacity=".3"/>
 <path d="m64.156 4.375c-2.5109-0.1421-4.2733 0.68577-4.375 1.625l-0.5 2.375 0.625 2.3125c-0.31962 2.9518-1.9512 13.237-5.875 18.719-4.0793 6.4382-12.847 7.2931-16.438 21.781-0.65791 2.6076-0.88928 3.5006-1.5312 6.125l33.656 7.1875c0.34152-1.709 0.64817-3.5301 1.0312-5.0938 3.2435-13.239-2.828-17.561-4.0625-26.219s2.3142-17.017 2.9688-19.719l1.4375-1.4375 0.5625-2c0.57843-1.1631-0.75825-3.9346-4.7812-5.1562-0.97488-0.29603-1.8818-0.45263-2.7188-0.5z" fill="url(#j)" fill-rule="evenodd"/>
 <path transform="translate(0 22.5)" d="m70.179 28.267c0.00106 6.7097-2.7384 12.15-6.1182 12.15s-6.1192-5.4404-6.1182-12.15 2.7384-12.15 6.1182-12.15 6.1192 5.4404 6.1182 12.15z" fill-opacity=".52778" opacity=".41706"/>
 <path transform="matrix(2.0907 0 0 1.1445 -120.25 -10.285)" d="m118.33 58.829a11.961 12.088 0 1 1 -23.921 0 11.961 12.088 0 1 1 23.921 0z" fill="url(#f)" opacity=".55924"/>
 <path d="m81.188 41.719c-1.7999 0.0193-3.7487 0.21096-5.75 0.625-8.0051 1.6562-13.831 6.0019-13.062 9.7188l2.3438 11.375 31.562 6.75-5-24.125c-0.57673-2.7876-4.6939-4.4016-10.094-4.3438z" fill="url(#l)"/>
 <path d="m107.59 41.5c-4.3126-1.0782-11.169 10.644-10.781 12.969-0.25339 1.267-1.7509 2.3403-1.4375 3.5938 1.0436 4.1746 3.6843 3.9634-2.5312 8.625-1.1294 0.84709-1.8124 1.4751-2.6875 2.1875l23.594 5.0312 49.906-13.469c3.2111-2.5148-7.7169-4.4357-9.625-6.3438-4.7915-4.7915-3.9207 0.17912-3.0938 3.0625 0.2192 0.51439 0.44198 1.0224 0.5625 1.625 0.11416 0.57079-0.20105-0.36476-0.5625-1.625-2.3811-5.5878-10.193-5.9629-16.344 0.1875-6.5756 6.5756-2.5219 0-6.8438 0-5.9613 0-3.6007-4.3125-6.8125-4.3125-0.49462 0 0.66564-1.8443 0.34375-1.4688-6.9252 8.0793-5.6063-8.0422-13.688-10.062z" fill="url(#k)" fill-rule="evenodd"/>
 <path d="m111.22 45.469c-1.2064 0.30161-5.2313 3.8938-5.7812 6.0938-0.43208 1.7283 5.7702-0.16636 6.125-0.34375 2.7166-1.3583-1.1723-3.326 1.0625-2.9062-1.0418-1.0435-1.0637-1.1311-1.4062-2.8438zm1.4062 2.8438c0.01499 0.01501 0.01583 0.01583 0.03125 0.03125 0.51249 0.51249 1.0228 1.0803 1.5 1.6875-0.22889-0.85209-0.55279-1.5366-1.1562-1.6875-0.25304-0.06326-0.2033 1e-3 -0.375-0.03125zm1.5312 1.7188c0.51037 1.8999 0.39451 4.828 0.65625 5.875 0.58749 2.35 4.5666 2.7588-0.71875 1.4375-2.3981-0.59953-6.2561 1.0625 0.71875 1.0625 3.7972 0 4.9084 0.59591 6.8438 2.5312 3.2299 3.2299 3.1604 0.60206 1.7812-2.1562-0.26475-0.52948-4.1368-1.7433-4.6875-2.1562-1.3655-1.0241-2.8674-2.5632-3.2188-3.9688-0.26388-1.0555-0.7858-1.8754-1.375-2.625zm-15.719 3.0312c-0.43499-0.02823-0.92586 4.6054 0.1875 5.7188 1.1244 1.1244 2.4305-2.3923 0.34375 1.7812-0.88707 1.7742-2.0801 2.875 1.0938 2.875 2.5983 0 0.81667 1.8234 3.2188 3.625 2.0265 1.5199 2.4406 2.2828 4.3125 3.2188 1.9236 0.96182 7.1478 3.8999 2.9062 0.71875-2.4835-1.8626-3.9924-5.0549-6.5-7.5625-3.1839-3.1839 4.7046-1.911 6.125-1.4375 6.2703 2.0901-7.7744-5.4397-10.062-6.8125-1.9668-1.1801-1.7086-1.6264-1.125-1.8438-0.18524 0.00478-0.07063 0.03125-0.3125 0.03125-0.05455-0.21822-0.12536-0.30847-0.1875-0.3125zm39.406 3.5625c-0.52859-0.31715-3.3557 3.8052-3.9688 5.0312-0.43854 0.87706 6.1415-2.204 2.875 1.0625-0.91755 0.91755 3.25 0.88989 3.25 2.1875 0 0.68561-0.33528 1.4112-0.71875 2.125l9.5-2.5625c0.97853-0.77694 2.0084-1.375 3.4375-1.375 2.3076 0-4.5498-1.5463-6.8125-1.0938-1.4721 0.29442-2.0292 1.8125-3.9688 1.8125-1.1255 0 1.137-3.6899 2.5312-3.9688 2.5368-0.50736 0.44809-2.5-1.4375-2.5-2.4536 0-1.541 1.7985-4.6875-0.71875zm19.062 1.375c-0.28935-0.11833-0.54125 0.07124-0.71875 0.78125-0.31945 1.2778-0.91667 2.9097-1.875 4.1875l4.8125-1.3125c-0.0179-0.02012-0.04507 0.02324-0.0625 0-0.13295-0.17726-1.2882-3.3013-2.1562-3.6562zm5.75 0.78125c-0.34682-0.34683-1.4292 1.0756-2.4688 2.5938l0.125-0.03125c0.73483-0.73832 1.5197-2.068 2.3438-2.5625zm-45.531 3.2188c-0.0494 0.02039-0.09705 0.13818-0.15625 0.375-0.48241 1.9296-1.0938 3.4602-1.0938 5.4062 0 1.5698-0.77206 3.8894-1.1875 5.875l3.25-0.875c0.19818-1.6128 0.46875-3.2613 0.46875-4.6562 0-0.11996-0.3459 0.11638-0.375 0-0.41443-1.6577-0.56042-6.2677-0.90625-6.125zm12.438 1.0938c-2.204 2.204-7.6127 6.0108-8.75 8.9062l7.6562-2.0625c-8.1771 2.7257 3.0487-8.7987 1.0938-6.8438z" fill="url(#u)" fill-rule="evenodd"/>
 <path d="m81.188 41.719c-1.7999 0.0193-3.7487 0.21096-5.75 0.625-8.0051 1.6562-13.831 6.0019-13.062 9.7188l2.3438 11.375 31.562 6.75-5-24.125c-0.57673-2.7876-4.6939-4.4016-10.094-4.3438z" fill="url(#i)" opacity=".1327"/>
 <path transform="matrix(.89489 -.21571 .20386 .9272 5.2756 33.603)" d="m85.294 32.135c0 2.8821-6.0423 5.2184-13.496 5.2184s-13.496-2.3364-13.496-5.2184 6.0423-5.2184 13.496-5.2184 13.496 2.3364 13.496 5.2184z" fill="#6e6e6e"/>
 <path d="m52.819 55.259c-2.049-14.801-15.819-1.4639-10.207-13.638 3.4486-4.9218 8.819-6.9443 11.987-4.5146s1.6687 13.231-1.7799 18.153z" fill="url(#g)" opacity=".6019"/>
 <path d="m61.33 10.904c5.8531 2.5448 0.25448 17.305 0.25448 17.305s-2.5448 5.0896-5.5986 7.6345-8.1434 2.2903-3.3083-3.3083 6.362-10.434 7.1255-15.014 1.5269-6.6165 1.5269-6.6165z" fill="url(#h)" fill-rule="evenodd" opacity=".41706"/>
 <path d="m60.77573,9.99987c1.54891-.038 3.12293.17569 4.67277.34196 1.24471.50052 3.3.89471 3.41306,1.76078 .17885.80133-1.59442.9049-2.61034.33589-1.22574-.3887-2.5041-.72924-3.75149-1.09818-1.27702.00487-2.5561-.75925-1.75143-1.27444l.02744-.06601z" fill-opacity=".25556" fill-rule="evenodd" opacity=".76303"/>
 <path d="m105.36-33.675z" fill="none" stroke="#000" stroke-width="1.25"/>
 <path d="m64.601 54.436 1.9794 9.5371 17.995 3.7789-2.3393-14.936s-7.1978 4.4986-17.635 1.6195z" fill-opacity=".16667" fill-rule="evenodd"/>
</svg>
