<?xml version="1.0" encoding="UTF-8"?>
<svg width="685.36" height="690.03" version="1.1" viewBox="0 0 685.35822 690.03285" xmlns="http://www.w3.org/2000/svg">
 <g transform="translate(-28.847 -42.441)" fill-rule="evenodd">
  <rect transform="matrix(.96593 -.25882 .25882 .96593 0 0)" x="9.6413" y="368.55" width="284.52" height="37.385" fill="#241c1c"/>
  <rect transform="matrix(.96593 .25882 .25882 -.96593 0 0)" x="445.07" y="-212.04" width="277.63" height="39.715" fill="#333"/>
  <rect x="72.451" y="120.89" width="599.16" height="40.347" fill="#333"/>
  <rect x="72.451" y="120.89" width="301.3" height="40.347" fill="#4d4d4d"/>
  <rect transform="matrix(.96593 -.25882 .25882 .96593 0 0)" x="9.6413" y="368.55" width="284.52" height="37.385" fill="#666"/>
  <path d="m96.659 540.51h160.38c70.16-30.236 56.839-258.75 58.024-403.26h-273.88c3.3623 140.47-9.2442 350.61 55.478 403.26z" fill="#fc0"/>
  <path d="m75.477 42.441c-24.818 19.312-35.275 47.916-41.662 70.914l287.98 0.41777c-3.3253-23.641-12.199-54.103-41.499-70.323z" fill="#fc0"/>
  <path d="m81.896 52.427c-17.329 13.249-23.15 27.945-29.537 50.943l250.53-0.65208c-3.3253-23.641-7.5633-36.272-27.948-50.352z" fill="#a80"/>
  <path transform="translate(28.847 42.441)" d="m153.78 94.812v403.25h74.406c70.16-30.236 56.846-258.74 58.031-403.25h-132.44z" fill="#d4aa00"/>
  <g transform="matrix(.64019 0 0 .64019 -394.54 -185.93)">
   <circle cx="940.46" cy="658.3" r="17.857" fill="#1a1a1a"/>
   <rect transform="matrix(.99555 -.094262 .12544 .9921 0 0)" x="717.68" y="860.63" width="6.9557" height="92.796" ry="0" fill="#1a1a1a"/>
   <rect transform="matrix(-.99616 -.08758 -.13493 .99086 0 0)" x="-981.35" y="706.69" width="7.4864" height="92.913" ry="0" fill="#1a1a1a"/>
   <rect x="834.27" y="871.81" width="34.953" height="6.0965" ry="3.0483" fill="#1a1a1a"/>
   <rect x="911.17" y="690.44" width="57.857" height="92.143" ry="9.2857" fill="#1a1a1a"/>
   <rect x="918.31" y="776.87" width="17.684" height="102.14" ry="6.4286" fill="#1a1a1a"/>
   <rect transform="matrix(.96798 .25103 -.46803 .88371 0 0)" x="1155" y="448" width="15.293" height="82.052" ry="5.4701" fill="#1a1a1a"/>
   <rect x="942.05" y="776.87" width="17.684" height="102.14" ry="6.4286" fill="#1a1a1a"/>
   <rect x="963.31" y="691.87" width="13.571" height="75" ry="5" fill="#1a1a1a"/>
   <ellipse cx="939.74" cy="697.23" rx="28.571" ry="15.357" fill="#1a1a1a"/>
   <rect transform="matrix(.85501 -.51861 .35105 .93636 0 0)" x="502.93" y="1118.4" width="30.725" height="7.0402" ry="0" fill="#1a1a1a"/>
   <path d="m846.76 773.65 10.607 14.142h23.234v-1.5152h-22.223l-10.102-13.385z" fill="#1a1a1a"/>
   <rect transform="matrix(.86603 .5 -.5 .86603 0 0)" x="1159.5" y="317.63" width="10.301" height="10.301" fill="#1a1a1a"/>
   <rect transform="matrix(.86603 .5 -.5 .86603 0 0)" x="1152.5" y="282.29" width="7.4249" height="7.4249" fill="#1a1a1a"/>
   <rect transform="matrix(.86603 .5 -.5 .86603 0 0)" x="1143.9" y="295.92" width="13.177" height="13.177" fill="#1a1a1a"/>
   <rect transform="matrix(.86603 .5 -.5 .86603 0 0)" x="1163.4" y="304.45" width="8.4707" height="8.4707" fill="#4d4d4d"/>
   <rect transform="matrix(.86603 .5 -.5 .86603 0 0)" x="1133" y="231.68" width="10.039" height="10.039" fill="#1a1a1a"/>
  </g>
  <rect x="41.455" y="122.18" width="273.82" height="34.252" ry="0" fill="#a80"/>
  <rect x="28.847" y="112.09" width="300.04" height="34.252" ry="3.2096" fill="#ffd42a"/>
  <rect x="31.095" y="114.84" width="214.35" height="2.5471" ry=".76412" fill="#fd5"/>
  <path d="m481.98 540.51h160.38c70.16-30.236 56.839-258.75 58.024-403.26h-273.88c3.3623 140.47-9.2442 350.61 55.478 403.26z" fill="#55d400"/>
  <path d="m460.79 42.441c-24.818 19.312-35.275 47.916-41.662 70.914l287.98 0.41777c-3.3253-23.641-12.199-54.103-41.499-70.323z" fill="#55d400"/>
  <path d="m467.21 52.427c-17.329 13.249-23.15 27.945-29.537 50.943l250.53-0.65208c-3.3253-23.641-7.5633-36.272-27.948-50.352z" fill="#338000"/>
  <path transform="translate(28.847 42.441)" d="m537.16 94.812v403.25h76.344c70.16-30.236 56.846-258.74 58.031-403.25h-134.38z" fill="#4a0"/>
  <g transform="matrix(.64019 0 0 .64019 -9.2266 -177.36)">
   <circle cx="940.46" cy="658.3" r="17.857" fill="#1a1a1a"/>
   <rect transform="matrix(.99555 -.094262 .12544 .9921 0 0)" x="717.68" y="860.63" width="6.9557" height="92.796" ry="0" fill="#1a1a1a"/>
   <rect transform="matrix(-.99616 -.08758 -.13493 .99086 0 0)" x="-981.35" y="706.69" width="7.4864" height="92.913" ry="0" fill="#1a1a1a"/>
   <rect x="834.27" y="871.81" width="34.953" height="6.0965" ry="3.0483" fill="#1a1a1a"/>
   <rect x="911.17" y="690.44" width="57.857" height="92.143" ry="9.2857" fill="#1a1a1a"/>
   <rect x="918.31" y="776.87" width="17.684" height="102.14" ry="6.4286" fill="#1a1a1a"/>
   <rect transform="matrix(.96798 .25103 -.46803 .88371 0 0)" x="1155" y="448" width="15.293" height="82.052" ry="5.4701" fill="#1a1a1a"/>
   <rect x="942.05" y="776.87" width="17.684" height="102.14" ry="6.4286" fill="#1a1a1a"/>
   <rect x="963.31" y="691.87" width="13.571" height="75" ry="5" fill="#1a1a1a"/>
   <ellipse cx="939.74" cy="697.23" rx="28.571" ry="15.357" fill="#1a1a1a"/>
   <rect transform="matrix(.85501 -.51861 .35105 .93636 0 0)" x="502.93" y="1118.4" width="30.725" height="7.0402" ry="0" fill="#1a1a1a"/>
   <path d="m846.76 773.65 10.607 14.142h23.234v-1.5152h-22.223l-10.102-13.385z" fill="#1a1a1a"/>
   <rect transform="matrix(.86603 .5 -.5 .86603 0 0)" x="1159.5" y="317.63" width="10.301" height="10.301" fill="#1a1a1a"/>
   <rect transform="matrix(.86603 .5 -.5 .86603 0 0)" x="1152.5" y="282.29" width="7.4249" height="7.4249" fill="#1a1a1a"/>
   <rect transform="matrix(.86603 .5 -.5 .86603 0 0)" x="1143.9" y="295.92" width="13.177" height="13.177" fill="#1a1a1a"/>
   <rect transform="matrix(.86603 .5 -.5 .86603 0 0)" x="1163.4" y="304.45" width="8.4707" height="8.4707" fill="#4d4d4d"/>
   <rect transform="matrix(.86603 .5 -.5 .86603 0 0)" x="1133" y="231.68" width="10.039" height="10.039" fill="#1a1a1a"/>
  </g>
  <rect x="426.77" y="122.18" width="273.82" height="34.252" ry="0" fill="#338000"/>
  <rect x="414.16" y="112.09" width="300.04" height="34.252" ry="3.2096" fill="#7fff2a"/>
  <rect x="416.41" y="114.84" width="214.35" height="2.5471" ry=".76412" fill="#b3ff80"/>
  <rect x="354.88" y="126.95" width="38.33" height="562.85" fill="#333"/>
  <path transform="translate(28.847 42.441)" d="m537.16 0.5v70.625l141.09 0.21875c-3.3253-23.641-12.2-54.124-41.5-70.344l-99.594-0.5z" fill="#4a0"/>
  <path d="m467.21 52.427c-17.329 13.249-23.15 27.945-29.537 50.943l250.53-0.65208c-3.3253-23.641-7.5633-36.272-27.948-50.352z" fill="#338000"/>
  <path transform="translate(28.847 42.441)" d="m536.62 69.656v34.25h145.53c1.7781 0 3.1875-1.4406 3.1875-3.2188v-27.844c0-1.7781-1.4094-3.1875-3.1875-3.1875h-145.53z" fill="#55d400"/>
  <rect x="416.41" y="114.84" width="149.7" height="8.608" ry="2.5824" fill="#b3ff80"/>
  <path transform="translate(28.847 42.441)" d="m153.78 0.53125v70.594l139.16 0.21875c-3.3253-23.641-12.2-54.124-41.5-70.344l-97.656-0.46875z" fill="#d4aa00"/>
  <path d="m81.896 52.427c-17.329 13.249-23.15 27.945-29.537 50.943l250.53-0.65208c-3.3253-23.641-7.5633-36.272-27.948-50.352z" fill="#a80"/>
  <path transform="translate(28.847 42.441)" d="m153.78 69.656v34.25h143.06c1.7781 0 3.1875-1.4406 3.1875-3.2188v-27.844c0-1.7781-1.4094-3.1875-3.1875-3.1875h-143.06z" fill="#fc0"/>
  <rect x="31.095" y="114.84" width="151.46" height="9.6181" ry="2.8854" fill="#fd5"/>
  <rect x="354.88" y="126.95" width="19.044" height="562.85" fill="#4d4d4d"/>
  <g transform="matrix(2.6763 0 0 2.216 -971.9 -1169.3)">
   <path d="m456.88 834.97-16.297 23.214 122.78-0.0723-12.317-22.785z" fill="#917c6f"/>
   <path d="m456.88 834.97-16.297 23.214 62.197-0.0723-0.0505-22.785z" fill="#ac9d93"/>
  </g>
 </g>
</svg>
