<?xml version="1.0" encoding="UTF-8"?>
<svg viewBox="0 0 640 480" xmlns="http://www.w3.org/2000/svg">
 <g fill="#ae8f5c" fill-rule="evenodd" stroke="#332612">
  <g fill-opacity=".75">
   <path d="m83.848 187.95c125.38 0 125.38 0.49875 125.38 0.49875" stroke-linecap="round" stroke-width="14.152"/>
   <path d="m205.39 193.76l-15.104 153.31h-73.355l-28.324-153.64" stroke-linejoin="round" stroke-width="9"/>
   <g stroke-width="8">
    <path d="m92.672 217.38h111.22"/>
    <path d="m199.9 244.81h-101.74"/>
    <path d="m102.65 269.75h94.762"/>
    <path d="m107.63 294.68c87.281 0 87.281 0.9975 87.281 0.9975"/>
    <path d="m192.42 321.62h-80.298"/>
    <path d="m116.11 188.45l19.451 157.11"/>
    <path d="m152.52 345.06l-4.9875-156.11"/>
    <path d="m177.96 189.45l-5.9849 157.11"/>
   </g>
   <g stroke-width="6">
    <path d="m105.2 158.95c27.431-13.716 27.236-35.534 29.426-34.663 26.027 10.35 50.748 13.466 66.708 9.975-46.362 35.363-22.771 36.979-29.177 34.663-19.689-7.1172-48.254 14.214-66.957-9.975z" stroke-linecap="round" stroke-linejoin="round"/>
    <path d="m154.07 130.55c25.287 0.028076 26.007-8.0313 30.677-10.005 0.32384-0.13684 2.6294 10.73 8.9775 14.962"/>
   </g>
  </g>
  <g stroke-linecap="round" stroke-linejoin="round">
   <g stroke-width="5">
    <path d="m135.87 85.316l160.1 0.456c13.508 15.581 36.136 68.418 37.844 80.591l-79.739 3.99c-2.2444-26.184-14.713-50.623-16.459-54.364l-101.74-30.673z"/>
    <path d="m253.44 175.82l-27.231 175.09 62.586-115.19 27.572 115.65 16.655-173.11-79.582-2.4384z"/>
   </g>
   <path d="m293.01 51.554c0 15.971-13.105 28.919-29.272 28.919-16.166 0-29.272-12.947-29.272-28.919 0-15.971 13.105-28.919 29.272-28.919 16.166 0 29.272 12.947 29.272 28.919z" stroke-width="3"/>
  </g>
 </g>
</svg>
